<svg width="36" height="32" viewBox="0 0 36 32" fill="none" xmlns="http://www.w3.org/2000/svg">
<path fill-rule="evenodd" clip-rule="evenodd" d="M17.492 0.897994C17.7178 0.501603 18.2892 0.501651 18.5149 0.89808L18.9804 1.71554C18.9874 1.72788 19.0051 1.72836 19.0128 1.71641C19.0207 1.70408 19.039 1.70507 19.0456 1.71817L19.5106 2.64652L19.954 3.42524C19.9688 3.45132 20.0056 3.45348 20.0234 3.42932C20.0425 3.40345 20.0824 3.40815 20.095 3.43774L20.4847 4.35719L20.9283 5.13618C20.95 5.17437 21.003 5.17951 21.0317 5.14622C21.0639 5.1089 21.1244 5.12073 21.1401 5.16739L21.4059 5.95486C21.4169 5.98752 21.431 6.01905 21.4481 6.049L21.8954 6.83457C21.924 6.88468 21.9921 6.89443 22.0335 6.85435C22.0827 6.80685 22.1648 6.83077 22.1808 6.89723L22.3461 7.58663C22.357 7.63181 22.3741 7.67524 22.3971 7.71561L22.8608 8.52986C22.8951 8.59017 22.9749 8.60609 23.0298 8.5636C23.0995 8.50959 23.2015 8.55177 23.2128 8.63926L23.286 9.20928C23.2933 9.26657 23.3118 9.32187 23.3404 9.37206L23.8158 10.207C23.8557 10.277 23.945 10.3009 24.0145 10.2602C24.1109 10.2038 24.2322 10.2733 24.2322 10.3851V10.832C24.2322 10.9016 24.2503 10.97 24.2847 11.0304L24.4628 11.3431C24.4909 11.3924 24.5521 11.4119 24.6035 11.3878C24.6795 11.3521 24.7655 11.4123 24.7581 11.4959L24.7367 11.7351C24.7322 11.7852 24.7432 11.8355 24.7681 11.8792L25.1216 12.5001C25.1388 12.5303 25.1751 12.5439 25.2079 12.5324C25.2602 12.5141 25.3127 12.5593 25.3023 12.6138L25.2824 12.7181C25.2765 12.7492 25.2818 12.7814 25.2975 12.8089L25.7861 13.6669C25.7932 13.6794 25.8076 13.6857 25.8216 13.6825C25.846 13.6769 25.8673 13.6999 25.8599 13.7238L25.8516 13.7509C25.8477 13.7638 25.8492 13.7778 25.8559 13.7895L35.4939 30.7149C35.7196 31.1112 35.4334 31.6036 34.9773 31.6036H34.0457C34.0314 31.6036 34.0221 31.6186 34.0285 31.6314C34.0351 31.6446 34.025 31.6599 34.0103 31.6591L32.995 31.6036H32.0953C32.0658 31.6036 32.0458 31.6338 32.0573 31.661C32.0697 31.6902 32.0459 31.7219 32.0144 31.7181L31.0591 31.6036H30.1504C30.1063 31.6036 30.0753 31.6469 30.0894 31.6886C30.1052 31.7355 30.0644 31.782 30.0158 31.7723L29.2205 31.6139C29.1862 31.6071 29.1513 31.6036 29.1163 31.6036H28.2195C28.1622 31.6036 28.12 31.6572 28.1334 31.7128C28.1493 31.7792 28.0874 31.8378 28.022 31.8184L27.3663 31.6236C27.3216 31.6104 27.2753 31.6036 27.2287 31.6036H26.2914C26.2222 31.6036 26.1687 31.6644 26.1775 31.733C26.1888 31.8208 26.1006 31.8878 26.0191 31.8534L25.5077 31.6377C25.4543 31.6152 25.3969 31.6036 25.339 31.6036H24.3767C24.2969 31.6036 24.2322 31.6683 24.2322 31.7481C24.2322 31.8597 24.1111 31.9291 24.0148 31.8728L23.6459 31.6569C23.5862 31.622 23.5183 31.6036 23.4492 31.6036H23.0647C23.0065 31.6036 22.9579 31.6481 22.9527 31.706C22.945 31.7926 22.8462 31.838 22.7754 31.7875L22.5826 31.6498C22.5406 31.6198 22.4902 31.6036 22.4385 31.6036H21.7464C21.7087 31.6036 21.6763 31.6304 21.6693 31.6674C21.6579 31.7271 21.5859 31.7518 21.5403 31.7117L21.4574 31.6388C21.4316 31.6161 21.3984 31.6036 21.364 31.6036H20.4072C20.3879 31.6036 20.3708 31.6162 20.3651 31.6347C20.3552 31.6673 20.3135 31.6766 20.2906 31.6514L20.2662 31.6247C20.254 31.6113 20.2366 31.6036 20.2184 31.6036H19.0479C19.0474 31.6036 19.047 31.6039 19.0468 31.6043C19.0464 31.6051 19.0453 31.6053 19.0448 31.6045L19.0446 31.6042C19.0443 31.6038 19.0439 31.6036 19.0434 31.6036H1.03791C0.575081 31.6036 0.284657 31.1039 0.51375 30.7018L0.97888 29.8853C0.987047 29.8709 0.977277 29.853 0.960802 29.8521C0.943804 29.8512 0.934133 29.8323 0.94334 29.8179L1.59124 28.8103L1.95263 28.1759C1.96813 28.1487 1.95089 28.1145 1.9198 28.1108C1.88648 28.1068 1.86985 28.0684 1.88976 28.0413L2.50501 27.2063L2.92628 26.4668C2.94905 26.4268 2.92599 26.3763 2.88088 26.3673C2.83026 26.3572 2.8093 26.2963 2.84299 26.2572L3.40512 25.6048C3.42911 25.5769 3.45035 25.5468 3.46855 25.5149L3.89363 24.7687C3.92276 24.7176 3.89667 24.6526 3.84026 24.6359C3.77323 24.616 3.75249 24.5312 3.80276 24.4826L4.31562 23.9867C4.3503 23.9532 4.38003 23.9148 4.40391 23.8729L4.85863 23.0747C4.89391 23.0128 4.86717 22.9339 4.80149 22.9062C4.71764 22.8709 4.70292 22.7583 4.77487 22.7026L5.23206 22.3484C5.27967 22.3116 5.31952 22.2657 5.34932 22.2133L5.81678 21.3928C5.85661 21.3228 5.83278 21.2339 5.76332 21.1932C5.66635 21.1365 5.66635 20.9964 5.76332 20.9396L6.138 20.7204C6.19874 20.6848 6.24906 20.6339 6.28389 20.5728L6.45858 20.2661C6.4889 20.2129 6.47405 20.1454 6.42421 20.1098C6.34986 20.0567 6.3602 19.9432 6.44291 19.9044L6.66917 19.7983C6.71883 19.775 6.76006 19.7369 6.78721 19.6893L7.10995 19.1227C7.13059 19.0865 7.12293 19.0407 7.0916 19.0132C7.04109 18.9688 7.05711 18.8864 7.12058 18.8642L7.23514 18.8241C7.27131 18.8115 7.30169 18.7861 7.32066 18.7528L7.76983 17.9643C7.78124 17.9443 7.77845 17.9192 7.76294 17.9022C7.73552 17.8721 7.75069 17.8237 7.79036 17.8146L7.83155 17.8051C7.85279 17.8003 7.87102 17.7867 7.88181 17.7678L8.44002 16.7879C8.44252 16.7835 8.44224 16.7781 8.43931 16.774C8.43355 16.7659 8.43861 16.7547 8.44846 16.7536L8.45247 16.7532C8.45736 16.7527 8.4617 16.7498 8.46414 16.7456L17.492 0.897994ZM8.77603 17.2448C8.67333 17.1012 8.45638 17.1124 8.36899 17.2658C8.26473 17.4489 8.42794 17.6685 8.63327 17.6214L8.74683 17.5954C8.78868 17.5858 8.82512 17.5602 8.84835 17.5241C8.88476 17.4675 8.88295 17.3944 8.8438 17.3396L8.77603 17.2448ZM9.21552 17.488C9.1893 17.494 9.16204 17.4837 9.14639 17.4618C9.13051 17.4396 9.12977 17.4099 9.14454 17.3869L9.4534 16.9066C9.48905 16.8512 9.5479 16.8149 9.61343 16.808C9.70092 16.7987 9.78537 16.8431 9.82737 16.9204L9.84925 16.9607C9.90222 17.0582 9.89402 17.1775 9.8282 17.2668L9.82275 17.2742C9.78009 17.3321 9.71808 17.3728 9.64798 17.3889L9.21552 17.488ZM8.88182 17.7955C8.90599 17.7579 8.94392 17.7313 8.98749 17.7213C9.05476 17.7059 9.1247 17.7324 9.16484 17.7885L9.22043 17.8663C9.26922 17.9345 9.26857 18.0264 9.21881 18.0939C9.19568 18.1253 9.16363 18.149 9.12683 18.1619L9.11833 18.1649C8.91815 18.2349 8.74245 18.0123 8.85716 17.8339L8.88182 17.7955ZM8.46602 18.1187C8.54258 17.9996 8.4359 17.8477 8.29792 17.8793C8.1801 17.9063 8.13505 18.0503 8.21646 18.1396C8.28633 18.2163 8.40991 18.2059 8.46602 18.1187ZM8.24394 18.4641C8.25148 18.4523 8.25019 18.437 8.2408 18.4267L8.08401 18.2546C7.99949 18.1618 7.84905 18.1785 7.78693 18.2876C7.70238 18.436 7.84727 18.6098 8.00849 18.5534L8.22821 18.4765C8.23469 18.4742 8.24022 18.4698 8.24394 18.4641ZM7.80821 19.1417C7.89819 19.0018 7.76036 18.8271 7.60334 18.8821L7.43447 18.9412C7.41846 18.9468 7.40501 18.958 7.39661 18.9728C7.38009 19.0017 7.38623 19.0384 7.41129 19.0604L7.54567 19.1785C7.62602 19.2491 7.75036 19.2317 7.80821 19.1417ZM7.36162 19.4736C7.43972 19.4369 7.45461 19.3322 7.38982 19.2753C7.33287 19.2252 7.24433 19.2401 7.2068 19.3059C7.14899 19.4074 7.25588 19.5231 7.36162 19.4736ZM6.85255 20.1996C6.79002 20.155 6.7714 20.0703 6.80943 20.0035L6.83916 19.9513C6.85845 19.9175 6.88774 19.8904 6.92302 19.8738L7.00256 19.8365C7.15106 19.7669 7.29814 19.935 7.20943 20.0729C7.19552 20.0946 7.1767 20.1126 7.1545 20.1256L7.01533 20.207C6.96435 20.2369 6.90061 20.234 6.85255 20.1996ZM6.70106 20.3075C6.67642 20.2899 6.64196 20.2975 6.62697 20.3238C6.60109 20.3692 6.65205 20.4196 6.69717 20.3932C6.72914 20.3745 6.73121 20.329 6.70106 20.3075ZM6.93188 20.4723C6.926 20.4682 6.9182 20.4678 6.91197 20.4714L6.44441 20.745C6.388 20.778 6.34127 20.8253 6.30891 20.8821L6.20218 21.0695C6.16036 21.1429 6.18538 21.2363 6.2583 21.2789C6.32965 21.3207 6.42122 21.2988 6.46592 21.2292L6.93664 20.4972C6.94193 20.489 6.93983 20.478 6.93188 20.4723ZM7.18472 20.6529C7.13242 20.6156 7.05952 20.6296 7.02477 20.6836C6.95641 20.7899 7.08831 20.9107 7.18822 20.8333L7.20623 20.8194C7.21321 20.814 7.21941 20.8076 7.22464 20.8005C7.25626 20.7576 7.24663 20.6971 7.20326 20.6662L7.18472 20.6529ZM7.46154 20.479C7.41989 20.5355 7.34057 20.5482 7.28342 20.5074C7.22765 20.4675 7.21296 20.3909 7.25002 20.3333L7.29455 20.2641C7.30571 20.2467 7.3208 20.2322 7.33861 20.2218C7.46157 20.1499 7.59488 20.298 7.51037 20.4127L7.46154 20.479ZM7.46879 20.8558C7.46182 20.8508 7.45242 20.851 7.44565 20.8563L7.34674 20.9329C7.3435 20.9354 7.34063 20.9383 7.3382 20.9416L7.1802 21.1561C7.16421 21.1778 7.1938 21.2036 7.21317 21.1849L7.47221 20.8842C7.47966 20.8756 7.47807 20.8624 7.46879 20.8558ZM8.02894 21.2559C7.81677 21.1043 7.52665 21.1259 7.33922 21.3071C7.15911 21.5162 7.21263 21.8373 7.45078 21.9767L14.0551 25.8411C14.149 25.896 14.2595 25.8016 14.2199 25.7002C14.2118 25.6795 14.1978 25.6616 14.1797 25.6486L8.02894 21.2559ZM14.7019 26.0215C14.6326 25.972 14.5413 26.043 14.5723 26.1224C14.5794 26.1403 14.5922 26.1554 14.6088 26.1651L14.7147 26.227C14.7846 26.268 14.8642 26.1909 14.8255 26.1197C14.8197 26.109 14.8115 26.0998 14.8016 26.0928L14.7019 26.0215ZM14.5084 25.5362C14.5369 25.5886 14.4749 25.6434 14.4264 25.6087L14.3649 25.5648C14.3554 25.558 14.3481 25.5487 14.3439 25.5378C14.321 25.4793 14.3921 25.4294 14.4394 25.4709L14.4962 25.5208C14.5011 25.5252 14.5053 25.5304 14.5084 25.5362ZM15.322 26.4644C15.2779 26.4329 15.2216 26.4827 15.2475 26.5303C15.2519 26.5384 15.2585 26.5452 15.2665 26.5499L15.362 26.6058C15.4048 26.6308 15.4515 26.5797 15.4226 26.5393C15.4197 26.5352 15.4161 26.5316 15.4119 26.5286L15.322 26.4644ZM15.0308 25.9914C15.0443 26.0102 15.0211 26.0334 15.0023 26.02L14.9543 25.9858C14.9514 25.9837 14.949 25.981 14.9473 25.9779C14.9348 25.9549 14.9638 25.9318 14.9834 25.9491L15.0277 25.988C15.0288 25.989 15.0299 25.9901 15.0308 25.9914ZM15.9391 26.9052C15.9239 26.8943 15.9051 26.9131 15.916 26.9283C15.9174 26.9302 15.9191 26.9318 15.9211 26.933L16.0015 26.98C16.0137 26.9871 16.0264 26.9715 16.0168 26.961C16.0163 26.9603 16.0156 26.9598 16.0149 26.9593L15.9391 26.9052ZM16.4769 27.4659C16.472 27.4605 16.4663 27.4559 16.46 27.4522C16.393 27.413 16.3199 27.4931 16.3651 27.5563L16.3885 27.5891C16.3965 27.6003 16.4075 27.609 16.4201 27.6144C16.4936 27.6453 16.5578 27.5547 16.504 27.4957L16.4769 27.4659ZM17.1234 27.9109C17.1193 27.9092 17.1156 27.9066 17.1127 27.9033C17.0891 27.8774 17.1205 27.8387 17.1507 27.8564L17.1569 27.86C17.1586 27.861 17.1602 27.8621 17.1616 27.8634C17.1872 27.8859 17.1615 27.927 17.1301 27.9137L17.1234 27.9109ZM17.0329 28.0761C17.0211 28.0632 17.0067 28.053 16.9905 28.0462C16.8782 27.9988 16.7744 28.1287 16.8453 28.2278L16.8989 28.3028C16.9153 28.3256 16.9387 28.3424 16.9657 28.3504C17.0883 28.3868 17.1811 28.2388 17.095 28.1443L17.0329 28.0761ZM17.7472 28.5825C17.7331 28.5783 17.7204 28.5704 17.7106 28.5595L17.6253 28.466C17.5723 28.4078 17.6356 28.3182 17.7082 28.3488C17.7155 28.3519 17.7222 28.3561 17.7281 28.3613L17.8232 28.4449C17.888 28.5018 17.8299 28.6071 17.7472 28.5825ZM17.6634 28.7681C17.6418 28.7444 17.6141 28.727 17.5833 28.7179C17.4225 28.6701 17.2923 28.8528 17.3898 28.9893L17.4188 29.0298C17.4474 29.0697 17.4901 29.0973 17.5383 29.1069L17.9155 29.1821C17.9345 29.1858 17.954 29.1786 17.9659 29.1634C17.9813 29.1437 17.9802 29.1158 17.9634 29.0973L17.6634 28.7681ZM18.1353 28.9467C18.1179 28.9689 18.0847 28.9702 18.0658 28.9494C18.0347 28.9153 18.0682 28.8619 18.1124 28.875C18.1432 28.8842 18.1551 28.9214 18.1353 28.9467ZM18.4138 29.2813C18.3776 29.2741 18.3447 29.2555 18.3199 29.2283L18.3036 29.2104C18.2563 29.1585 18.2534 29.0801 18.2966 29.0248L18.3288 28.9836C18.3458 28.9619 18.3743 28.9528 18.4008 28.9607C18.4101 28.9634 18.4186 28.9682 18.4259 28.9746L18.8248 29.3252C18.8321 29.3315 18.8337 29.3421 18.8288 29.3504C18.8245 29.3577 18.816 29.3614 18.8077 29.3598L18.4138 29.2813ZM17.9354 29.4867C17.9855 29.4227 18.0673 29.3923 18.147 29.4082L18.1811 29.415C18.238 29.4263 18.2898 29.4555 18.3288 29.4984L18.5158 29.7036C18.5525 29.7439 18.5585 29.8034 18.5306 29.8502C18.5055 29.8921 18.4582 29.9153 18.4097 29.9095L18.1266 29.8756C18.0549 29.867 17.9901 29.8286 17.9481 29.7699L17.9299 29.7445C17.8744 29.6668 17.8766 29.5619 17.9354 29.4867ZM17.7728 29.4104C17.7966 29.3799 17.7799 29.3351 17.742 29.3275C17.6959 29.3183 17.6623 29.3703 17.6897 29.4086C17.7098 29.4368 17.7514 29.4376 17.7728 29.4104ZM17.5337 29.7161C17.5834 29.6525 17.5853 29.5636 17.5384 29.4979L17.4286 29.3444C17.3861 29.285 17.3225 29.2439 17.2508 29.2297L17.2148 29.2225C16.99 29.1777 16.815 29.4154 16.9244 29.6167C16.9662 29.6937 17.0428 29.7457 17.1298 29.7561L17.3685 29.7847C17.4318 29.7923 17.4944 29.7663 17.5337 29.7161ZM17.2694 30.054C17.3019 30.0125 17.2765 29.9515 17.2243 29.9453C17.1698 29.9388 17.1307 29.9964 17.1569 30.0446C17.1801 30.0874 17.2395 30.0923 17.2694 30.054ZM17.3775 30.4508C17.3287 30.361 17.3379 30.2508 17.4008 30.1703L17.4314 30.1313C17.5029 30.0398 17.617 29.9924 17.7324 30.0062L17.7548 30.0089C17.8586 30.0213 17.9523 30.0768 18.0131 30.1619L18.1245 30.3176C18.1666 30.3765 18.1698 30.4546 18.1328 30.5167C18.0981 30.5747 18.0342 30.6087 17.9667 30.6051L17.5889 30.5844C17.5 30.5795 17.42 30.529 17.3775 30.4508ZM16.9751 30.4304C17.044 30.3423 17.0541 30.2216 17.0006 30.1232L16.9728 30.0721C16.9156 29.9668 16.8109 29.8957 16.692 29.8815L16.5586 29.8655C16.3102 29.8357 16.1197 30.0817 16.2108 30.3148C16.258 30.4357 16.3716 30.5178 16.5011 30.5249L16.7384 30.5379C16.8301 30.5429 16.9185 30.5028 16.9751 30.4304ZM17.1719 30.5616C17.1407 30.5599 17.1244 30.5239 17.1436 30.4993C17.1607 30.4774 17.1946 30.4803 17.2079 30.5047C17.2223 30.5312 17.202 30.5632 17.1719 30.5616ZM16.6182 30.8868C16.6747 30.8146 16.6266 30.7087 16.535 30.7037C16.4526 30.6991 16.3931 30.7813 16.4232 30.8582C16.4552 30.9401 16.5641 30.956 16.6182 30.8868ZM15.9633 30.6724C16.0877 30.6792 16.1966 30.758 16.2419 30.874C16.3315 31.1032 16.6364 31.1479 16.788 30.954L16.8538 30.8699C16.9237 30.7805 17.0335 30.7309 17.1468 30.7371C17.2664 30.7436 17.3747 30.8118 17.4319 30.917C17.5569 31.147 17.3904 31.427 17.1286 31.427H1.62447C1.03468 31.427 0.664583 30.7902 0.95652 30.2778C1.10071 30.0247 1.37557 29.8748 1.66643 29.8907L15.9633 30.6724ZM15.5344 30.4721C15.7977 30.4865 15.9878 30.2238 15.8918 29.9782C15.8432 29.8538 15.73 29.7662 15.5974 29.7503L3.11713 28.2543C2.57173 28.1889 2.03689 28.4407 1.73981 28.9028C1.53288 29.266 1.78044 29.7201 2.19787 29.7429L15.5344 30.4721ZM3.02074 26.9107C2.70223 27.406 3.01196 28.0639 3.59667 28.1339L15.1645 29.5205C15.4249 29.5518 15.6244 29.294 15.529 29.0498C15.4859 28.9396 15.3896 28.8589 15.2736 28.8358L3.8474 26.5598C3.52593 26.4958 3.19802 26.635 3.02074 26.9107ZM3.57224 26.053C3.49777 26.1688 3.56332 26.3233 3.69837 26.3502L14.8073 28.5629C15.0565 28.6126 15.2622 28.3671 15.1697 28.1304C15.1335 28.038 15.0568 27.9674 14.9617 27.9392L5.93915 25.2593C5.06176 24.9987 4.11515 25.3161 3.57224 26.053ZM5.47288 23.4733C5.0424 24.0576 5.32219 24.892 6.01789 25.0986L14.4633 27.6071C14.6943 27.6757 14.9032 27.4486 14.8155 27.2241C14.787 27.1513 14.7303 27.0931 14.6583 27.0627L5.9057 23.3719C5.75469 23.3082 5.57985 23.3492 5.47288 23.4733ZM5.44231 23.1764C5.45468 23.1817 5.45892 23.1971 5.45095 23.2079L5.33723 23.3622L5.19993 23.5216L5.41678 23.1843C5.42224 23.1759 5.43301 23.1725 5.44231 23.1764ZM7.4269 22.1667C7.10789 21.98 6.7011 22.0478 6.45985 22.3278C6.12065 22.7215 6.26366 23.3315 6.7425 23.5334L14.1562 26.6597C14.3523 26.7424 14.5514 26.5485 14.4739 26.3502C14.4542 26.2997 14.418 26.2574 14.3713 26.23L7.4269 22.1667ZM15.0863 26.6484C14.9546 26.5714 14.7996 26.7038 14.8551 26.8459L14.8805 26.9108C14.8967 26.9524 14.9291 26.9856 14.9702 27.0029C15.1142 27.0637 15.2543 26.909 15.1797 26.7717L15.1465 26.7105C15.1324 26.6847 15.1116 26.6633 15.0863 26.6484ZM15.7773 27.0528C15.6755 26.9932 15.5599 27.1053 15.6162 27.2089L15.6429 27.2582C15.6559 27.2821 15.6767 27.3008 15.7017 27.3114C15.8132 27.3584 15.9162 27.2295 15.8458 27.1312L15.8132 27.0855C15.8037 27.0722 15.7915 27.061 15.7773 27.0528ZM16.3164 27.7892C16.2981 27.7636 16.2732 27.7437 16.2443 27.7315C16.0963 27.6691 15.9525 27.8279 16.0291 27.969L16.0617 28.0288C16.0837 28.0693 16.1208 28.0994 16.165 28.1125C16.3238 28.1597 16.4524 27.9793 16.356 27.8446L16.3164 27.7892ZM16.8634 28.5541C16.834 28.5129 16.7916 28.4827 16.743 28.4683C16.5484 28.4105 16.3812 28.6169 16.4781 28.7953L16.488 28.8136C16.5205 28.8734 16.5778 28.9156 16.6445 28.9289C16.8481 28.9694 16.9963 28.7399 16.8756 28.5711L16.8634 28.5541ZM15.7357 28.7479C15.9663 28.7938 16.1451 28.5487 16.0329 28.3421C15.9978 28.2776 15.9385 28.2293 15.8681 28.2084C15.6469 28.1427 15.4474 28.3615 15.5314 28.5764C15.5659 28.6646 15.643 28.7294 15.7357 28.7479ZM16.218 29.0239C15.978 28.9761 15.78 29.2125 15.8691 29.4404C15.9106 29.5467 16.0073 29.6216 16.1207 29.6352L16.1882 29.6432C16.4357 29.6729 16.6136 29.4108 16.4946 29.1918C16.451 29.1117 16.3741 29.055 16.2847 29.0372L16.218 29.0239ZM15.2038 27.7381C15.2286 27.8016 15.2813 27.8501 15.3467 27.8695C15.5355 27.9256 15.6978 27.7253 15.6037 27.5522L15.5761 27.5013C15.5526 27.458 15.515 27.424 15.4696 27.4048C15.2925 27.3301 15.1128 27.5052 15.1827 27.6842L15.2038 27.7381ZM6.26438 22.1023C6.26698 22.0998 6.26936 22.0971 6.2715 22.0942L6.5359 21.7353C6.56067 21.7017 6.55085 21.654 6.51481 21.633C6.49004 21.6185 6.45894 21.6205 6.43625 21.6381L6.40099 21.6654C6.3911 21.673 6.3826 21.6823 6.37584 21.6928L6.16495 22.0208C6.12337 22.0855 6.20912 22.1558 6.26438 22.1023ZM5.28058 22.917C5.32612 22.9362 5.37886 22.9198 5.40559 22.8783L5.61848 22.5472C5.68668 22.4411 5.55508 22.3206 5.45539 22.3978C5.4437 22.4068 5.43392 22.4181 5.4266 22.4309L5.23175 22.773C5.2016 22.8259 5.22445 22.8933 5.28058 22.917ZM5.14415 23.0507C5.11167 23.037 5.07407 23.0498 5.05662 23.0804C5.01678 23.1503 5.10764 23.2208 5.16549 23.1649C5.20138 23.1302 5.19015 23.0701 5.14415 23.0507ZM4.60813 24.1185C4.64803 24.0564 4.56574 23.9889 4.51271 24.0402C4.50847 24.0443 4.50484 24.049 4.50192 24.0541L4.23707 24.519C4.22446 24.5412 4.23576 24.5693 4.26019 24.5766C4.27512 24.581 4.29126 24.5763 4.30143 24.5645L4.37998 24.4733L4.60813 24.1185ZM4.14239 24.7491C4.14993 24.7403 4.14593 24.7267 4.13485 24.7234C4.12775 24.7213 4.12013 24.7243 4.11647 24.7308C4.10692 24.7475 4.1298 24.7637 4.14239 24.7491ZM3.39221 26.0021L3.49586 25.8202C3.55424 25.7177 3.62239 25.6211 3.69936 25.5318L3.42927 25.9518L3.39221 26.0021ZM4.03673 24.5102C4.03881 24.5108 4.04105 24.5099 4.04213 24.508C4.0448 24.5033 4.0387 24.4986 4.03481 24.5023C4.03223 24.5048 4.03329 24.5092 4.03673 24.5102ZM4.99469 22.7964C5.00503 22.8008 5.01701 22.7967 5.02256 22.7869C5.03456 22.7659 5.00889 22.7436 4.98972 22.7584C4.97632 22.7688 4.97906 22.7898 4.99469 22.7964ZM5.97654 21.4656C5.9084 21.5852 6.05418 21.7117 6.16302 21.6274L6.24933 21.5605C6.25402 21.5569 6.25805 21.5525 6.26126 21.5475C6.27729 21.5226 6.26933 21.4893 6.24374 21.4743L6.14951 21.4192C6.08901 21.3838 6.01124 21.4046 5.97654 21.4656ZM5.5647 23.023C5.56001 23.0275 5.56148 23.0354 5.5675 23.0379C5.57138 23.0396 5.57587 23.0383 5.57837 23.035C5.585 23.026 5.57273 23.0152 5.5647 23.023ZM6.65995 21.4648C6.64265 21.4782 6.64438 21.5048 6.66326 21.5159C6.6769 21.5239 6.69436 21.5203 6.70373 21.5075C6.725 21.4787 6.68829 21.4428 6.65995 21.4648ZM18.0671 30.968C17.9464 31.1703 18.0921 31.427 18.3277 31.427C18.5746 31.427 18.7182 31.1478 18.5746 30.947L18.5552 30.9198C18.5054 30.8503 18.4268 30.8071 18.3414 30.8024C18.2369 30.7967 18.1379 30.8494 18.0842 30.9393L18.0671 30.968ZM17.8684 30.9596C17.9165 30.879 17.8618 30.7762 17.7681 30.7711C17.6706 30.7657 17.605 30.8694 17.6516 30.9552C17.6978 31.0402 17.8189 31.0427 17.8684 30.9596ZM18.2899 30.5947C18.2825 30.6071 18.2909 30.6228 18.3052 30.6236C18.3212 30.6244 18.3311 30.6064 18.3218 30.5934C18.3138 30.5822 18.2969 30.5829 18.2899 30.5947ZM18.4871 30.2642C18.4358 30.3501 18.4403 30.4583 18.4985 30.5396C18.543 30.6018 18.6133 30.6404 18.6896 30.6446L19.2079 30.6729C19.2422 30.6748 19.274 30.6552 19.2878 30.6238C19.301 30.594 19.2953 30.5591 19.2733 30.535L19.0056 30.2412C18.9512 30.1815 18.8773 30.1434 18.7972 30.1338L18.752 30.1284C18.6476 30.1159 18.5457 30.166 18.4919 30.2562L18.4871 30.2642ZM18.3408 30.168C18.3641 30.129 18.3395 30.079 18.2944 30.0736C18.2402 30.0671 18.2042 30.128 18.2359 30.1724C18.2622 30.2092 18.3177 30.2069 18.3408 30.168ZM18.6908 29.923C18.6855 29.9319 18.6911 29.9433 18.7013 29.9445C18.7145 29.9461 18.7225 29.9305 18.7136 29.9207C18.7071 29.9136 18.6957 29.9148 18.6908 29.923ZM18.8525 29.652C18.818 29.7097 18.8254 29.7831 18.8707 29.8328L18.9352 29.9036C18.9807 29.9535 19.0426 29.9854 19.1097 29.9934L19.5075 30.0411C19.5284 30.0436 19.5484 30.0322 19.5569 30.013C19.5653 29.9939 19.5604 29.9716 19.5447 29.9579L19.1958 29.6512C19.1629 29.6223 19.123 29.6026 19.0801 29.594L19.0131 29.5807C18.9498 29.5681 18.8855 29.5967 18.8525 29.652ZM18.6978 29.5699C18.7114 29.5472 18.6984 29.518 18.6725 29.5128C18.6363 29.5056 18.6119 29.5488 18.6368 29.576C18.654 29.595 18.6847 29.5919 18.6978 29.5699ZM19.6383 29.7052C19.5975 29.6971 19.5722 29.7483 19.6035 29.7757C19.6242 29.7939 19.6566 29.7868 19.6677 29.7616C19.6781 29.7377 19.6639 29.7103 19.6383 29.7052ZM19.9282 29.763C19.8904 29.7554 19.8525 29.7752 19.837 29.8104L19.8214 29.8459C19.7984 29.8979 19.8119 29.9589 19.8546 29.9964L19.939 30.0706C19.9581 30.0874 19.9819 30.098 20.0071 30.101C20.1366 30.1165 20.2015 29.9492 20.0953 29.8734L19.9599 29.7767C19.9504 29.7699 19.9396 29.7652 19.9282 29.763ZM20.643 29.9053C20.5786 29.8925 20.5423 29.9766 20.5957 30.0147C20.6296 30.0389 20.6772 30.0228 20.6894 29.983L20.6909 29.9781C20.6985 29.9532 20.688 29.9262 20.6654 29.913C20.66 29.9098 20.6541 29.9076 20.648 29.9063L20.643 29.9053ZM20.7717 29.7145C20.7658 29.734 20.7459 29.7459 20.7259 29.7419C20.7215 29.741 20.7174 29.7394 20.7135 29.7372L20.71 29.7351C20.6661 29.7094 20.6953 29.6422 20.744 29.6567C20.767 29.6635 20.78 29.6877 20.7729 29.7106L20.7717 29.7145ZM21.6989 30.1157C21.6017 30.0963 21.5518 30.2276 21.6373 30.2777L21.666 30.2945C21.6736 30.2989 21.6821 30.3018 21.6908 30.3028C21.7245 30.3069 21.7555 30.2842 21.7618 30.2509L21.7681 30.2183C21.7771 30.1709 21.7462 30.1251 21.6989 30.1157ZM22.0348 30.1826C21.991 30.1739 21.9486 30.2025 21.9402 30.2463C21.9315 30.292 21.9633 30.3355 22.0095 30.341L22.044 30.3452C22.1348 30.356 22.1683 30.2296 22.084 30.194C22.0791 30.192 22.074 30.1904 22.0688 30.1893L22.0348 30.1826ZM22.8634 30.7476C22.8696 30.678 22.8193 30.6159 22.7498 30.6076L22.6874 30.6001C22.5458 30.5832 22.4823 30.7721 22.6053 30.8441C22.6234 30.8547 22.6437 30.8608 22.6645 30.8619L22.7274 30.8654C22.797 30.8692 22.8571 30.8171 22.8634 30.7476ZM23.0163 31.0846C23.0116 31.0819 23.009 31.0767 23.0094 31.0712C23.0101 31.0637 23.0166 31.058 23.0242 31.0585L23.9064 31.1067C23.9914 31.1113 24.0579 31.1816 24.0579 31.2667C24.0579 31.3552 23.9862 31.427 23.8976 31.427H23.6988C23.6351 31.427 23.5725 31.41 23.5175 31.3778L23.0163 31.0846ZM22.542 31.0321C22.5681 31.0335 22.5935 31.0412 22.6161 31.0544L22.7362 31.1246C22.7904 31.1564 22.8215 31.2166 22.8159 31.2792C22.8084 31.3629 22.7383 31.427 22.6542 31.427H22.6327C22.594 31.427 22.5563 31.4149 22.5247 31.3924L22.4375 31.3301C22.3035 31.2344 22.3777 31.0231 22.542 31.0321ZM21.9219 30.8213C22.0047 30.8258 22.0378 30.716 21.9661 30.674C21.919 30.6465 21.8587 30.6738 21.8485 30.7275C21.8395 30.7745 21.874 30.8187 21.9219 30.8213ZM21.5182 30.6735C21.5852 30.7214 21.6795 30.683 21.6949 30.602C21.7038 30.5555 21.6824 30.508 21.6415 30.4841C21.6283 30.4764 21.6135 30.4714 21.5983 30.4696C21.4822 30.4557 21.423 30.6056 21.5182 30.6735ZM20.8477 30.1947C20.8555 30.2003 20.8646 30.2038 20.8741 30.2049L20.8925 30.2071C20.9707 30.2165 21.0058 30.1121 20.9379 30.0724C20.8974 30.0487 20.8455 30.069 20.8318 30.1137L20.8263 30.1315C20.8191 30.155 20.8277 30.1804 20.8477 30.1947ZM20.7442 30.3991C20.7497 30.3813 20.7671 30.37 20.7855 30.3722C20.792 30.3729 20.7981 30.3753 20.8033 30.379L20.8903 30.4412C21.0331 30.5432 20.9541 30.7684 20.7789 30.7588L20.7488 30.7572C20.7291 30.7561 20.7103 30.7484 20.6954 30.7354C20.6693 30.7125 20.6591 30.6764 20.6693 30.6433L20.7442 30.3991ZM20.4761 30.3351C20.529 30.3414 20.5633 30.3941 20.5476 30.445C20.5294 30.5043 20.4561 30.5251 20.4095 30.4841C20.3465 30.4287 20.3928 30.3251 20.4761 30.3351ZM19.5794 30.3952C19.6211 30.3006 19.7197 30.2444 19.8223 30.2567L19.8254 30.2571C19.8705 30.2625 19.9129 30.2814 19.947 30.3114C20.1073 30.4522 19.9994 30.7162 19.7864 30.7046L19.7406 30.7021C19.6881 30.6992 19.6388 30.6758 19.6033 30.6369C19.5499 30.5782 19.5361 30.4936 19.568 30.421L19.5794 30.3952ZM19.4302 30.3008C19.4491 30.2577 19.4211 30.2086 19.3744 30.203C19.31 30.1953 19.2706 30.2717 19.3143 30.3197C19.3484 30.3571 19.4097 30.3471 19.4302 30.3008ZM19.6296 30.9261C19.5969 30.8902 19.5514 30.8686 19.503 30.8659C19.426 30.8617 19.3546 30.9056 19.3235 30.9761L19.2813 31.0718C19.2077 31.2391 19.3302 31.427 19.513 31.427C19.7329 31.427 19.8482 31.1659 19.7001 31.0034L19.6296 30.9261ZM20.5069 31.1727C20.4681 31.2991 20.5626 31.427 20.6948 31.427C20.8762 31.427 20.9608 31.2024 20.8246 31.0827L20.6646 30.9421C20.6547 30.9333 20.6421 30.9282 20.6289 30.9275C20.6019 30.926 20.5773 30.9432 20.5694 30.969L20.5069 31.1727ZM20.2058 30.9044C20.3062 30.9098 20.3749 31.0082 20.3454 31.1043C20.3102 31.219 20.1637 31.2518 20.0829 31.1632C19.9896 31.0608 20.0675 30.8968 20.2058 30.9044ZM21.4269 30.9711C21.2646 30.9622 21.1824 31.1634 21.3046 31.2707L21.4694 31.4156C21.4778 31.4229 21.4885 31.427 21.4997 31.427C21.5217 31.427 21.5406 31.4114 21.5447 31.3897L21.5858 31.1742C21.6052 31.0724 21.5304 30.9768 21.4269 30.9711ZM21.9448 31.1943C21.8686 31.1399 21.7617 31.1827 21.7441 31.2746C21.7291 31.3537 21.7897 31.427 21.8702 31.427C21.995 31.427 22.0464 31.2668 21.9448 31.1943ZM18.8684 31.0569C18.9309 31.1442 19.0647 31.1304 19.108 31.0321C19.1471 30.9434 19.0854 30.8431 18.9887 30.8378C18.8726 30.8315 18.8008 30.9623 18.8684 31.0569ZM23.0406 31.427C23.0068 31.427 22.9802 31.398 22.9833 31.3643C22.987 31.3223 23.0332 31.2984 23.0697 31.3198C23.1203 31.3494 23.0993 31.427 23.0406 31.427ZM24.025 31.6036C23.9913 31.6036 23.9793 31.6481 24.0083 31.665C24.0303 31.6779 24.0579 31.6621 24.0579 31.6366C24.0579 31.6184 24.0432 31.6036 24.025 31.6036ZM24.2322 31.2965C24.2322 31.3686 24.2906 31.427 24.3627 31.427C24.505 31.427 24.5445 31.2316 24.4134 31.1763L24.308 31.1319C24.3022 31.1294 24.2961 31.128 24.2898 31.1277C24.2585 31.1259 24.2322 31.1509 24.2322 31.1822V31.2965ZM25.4916 31.1934C25.3607 31.1862 25.319 31.3669 25.4398 31.4178C25.4542 31.4239 25.4696 31.427 25.4852 31.427H25.8406C25.9053 31.427 25.9552 31.3703 25.947 31.3062C25.9404 31.2549 25.8981 31.2156 25.8465 31.2128L25.4916 31.1934ZM26.2232 31.2841C26.1726 31.2691 26.1233 31.311 26.1301 31.3633C26.1347 31.3997 26.1657 31.427 26.2024 31.427C26.2866 31.427 26.3039 31.3081 26.2232 31.2841ZM27.9269 31.6036C27.9255 31.6036 27.9252 31.6056 27.9265 31.606C27.9274 31.6062 27.9283 31.6054 27.928 31.6045C27.9279 31.604 27.9274 31.6036 27.9269 31.6036ZM27.8722 31.3718C27.879 31.4 27.8576 31.427 27.8287 31.427H27.3336C27.3272 31.427 27.3208 31.4261 27.3147 31.4243C27.2392 31.4018 27.2586 31.29 27.3372 31.2943L27.7134 31.3148C27.7187 31.3151 27.7239 31.3158 27.729 31.3168L27.8375 31.3384C27.8546 31.3418 27.8681 31.3549 27.8722 31.3718ZM28.0611 31.4117C28.0633 31.4207 28.0713 31.427 28.0805 31.427C28.1045 31.427 28.108 31.3923 28.0844 31.3876C28.0701 31.3848 28.0578 31.3976 28.0611 31.4117ZM29.1883 31.3955C29.1687 31.3944 29.1651 31.4229 29.1844 31.4267C29.1854 31.4269 29.1864 31.427 29.1874 31.427H29.5856L29.4354 31.409L29.1883 31.3955ZM31.5167 30.3855C31.7717 30.9872 32.3471 31.3913 32.9997 31.427C33.3354 31.427 33.5537 31.0736 33.4033 30.7734L27.223 18.4344C27.106 18.2009 26.7857 18.1689 26.6249 18.3746C26.5453 18.4764 26.5271 18.6134 26.5776 18.7325L31.5167 30.3855ZM26.2023 17.847C26.299 18.0751 26.6051 18.1156 26.7577 17.9204C26.8351 17.8215 26.8485 17.6868 26.7923 17.5746L26.7162 17.4226C26.6702 17.3308 26.5824 17.2671 26.4808 17.2519C26.3543 17.233 26.2289 17.2924 26.1633 17.4022L26.1602 17.4074C26.1072 17.4963 26.0997 17.605 26.1401 17.7003L26.2023 17.847ZM25.6625 18.2414C25.7881 18.0309 26.0996 18.0523 26.1953 18.278L26.2252 18.3486C26.2681 18.4497 26.2527 18.5662 26.185 18.6528C26.0368 18.8423 25.7373 18.7912 25.6604 18.5632L25.6359 18.4906C25.6079 18.4077 25.6176 18.3166 25.6625 18.2414ZM25.9508 17.2537C25.9676 17.2934 26.0224 17.2971 26.0445 17.2601C26.0637 17.228 26.0441 17.1867 26.0071 17.1811C25.9664 17.175 25.9348 17.2158 25.9508 17.2537ZM25.5956 17.1196C25.6677 17.1304 25.729 17.1779 25.7575 17.245L25.8281 17.4118C25.861 17.4892 25.8549 17.5777 25.8118 17.65C25.6963 17.8435 25.4071 17.8126 25.3351 17.5991L25.319 17.5514C25.296 17.4835 25.2994 17.4094 25.3283 17.3438L25.373 17.2423C25.411 17.1559 25.5022 17.1056 25.5956 17.1196ZM25.7707 16.8286C25.8096 16.9206 25.8936 16.9856 25.9924 17.0004C26.1074 17.0176 26.2214 16.9636 26.2811 16.8637L26.2832 16.8602C26.3344 16.7743 26.3383 16.6682 26.2935 16.5788L26.1621 16.3165C26.1267 16.2458 26.0551 16.2005 25.9761 16.1989C25.89 16.1971 25.8113 16.2472 25.7766 16.326L25.7314 16.4286C25.689 16.5248 25.6882 16.6342 25.7293 16.731L25.7707 16.8286ZM25.5319 16.8816C25.5457 16.8502 25.5903 16.8505 25.6037 16.8821C25.6156 16.9102 25.5921 16.9406 25.5619 16.936C25.5364 16.9322 25.5215 16.9052 25.5319 16.8816ZM25.5283 16.2568C25.5446 16.2953 25.5991 16.2957 25.6159 16.2574C25.6297 16.2262 25.6073 16.1911 25.5732 16.1904C25.5386 16.1897 25.5148 16.2249 25.5283 16.2568ZM25.215 16.1829C25.2717 16.1841 25.3224 16.2184 25.3445 16.2706L25.4249 16.4602C25.4567 16.5354 25.4561 16.6203 25.4232 16.695L25.3876 16.7759C25.3548 16.8502 25.2765 16.8934 25.1962 16.8814C25.1294 16.8714 25.0738 16.8249 25.0522 16.7609L25.0218 16.6708C24.9994 16.6042 24.9984 16.5323 25.019 16.4651L25.0743 16.2846C25.0932 16.2231 25.1506 16.1816 25.215 16.1829ZM25.3667 15.8755C25.4015 15.9577 25.4814 16.0118 25.5707 16.0137C25.6622 16.0156 25.7459 15.9623 25.7829 15.8784L25.8015 15.8361C25.8371 15.7553 25.8348 15.663 25.7953 15.5841L25.5947 15.1836C25.5758 15.1459 25.5355 15.1238 25.4935 15.1283C25.4531 15.1325 25.4192 15.1605 25.4073 15.1993L25.3116 15.5112C25.2847 15.599 25.2895 15.6935 25.3254 15.778L25.3667 15.8755ZM25.1699 15.9731C25.1768 15.9505 25.2081 15.9489 25.2173 15.9707C25.2245 15.9875 25.2119 16.0062 25.1935 16.0058C25.1768 16.0054 25.165 15.9892 25.1699 15.9731ZM25.1003 15.247C25.122 15.2981 25.1956 15.2943 25.2119 15.2413C25.2244 15.2005 25.1912 15.1602 25.1488 15.1647C25.1091 15.1689 25.0847 15.2103 25.1003 15.247ZM24.8483 15.1965C24.8716 15.194 24.8937 15.2071 24.9028 15.2286L25.0387 15.5491C25.0682 15.6188 25.0722 15.6966 25.05 15.769L25.0067 15.91C24.9902 15.964 24.9398 16.0005 24.8833 15.9993C24.8301 15.9982 24.7833 15.9638 24.7662 15.9134L24.7307 15.808C24.715 15.7615 24.7116 15.7118 24.7208 15.6636L24.8016 15.2394C24.806 15.2164 24.825 15.199 24.8483 15.1965ZM24.9352 14.8575C24.9719 14.9441 25.0608 14.9964 25.1543 14.9866C25.2394 14.9776 25.3109 14.9186 25.336 14.8368L25.3417 14.8183C25.3587 14.7626 25.3537 14.7025 25.3276 14.6504L25.3201 14.6353C25.2255 14.4466 24.9454 14.4855 24.9059 14.6929C24.8977 14.7358 24.9024 14.7801 24.9195 14.8203L24.9352 14.8575ZM24.6672 14.2253C24.6983 14.2987 24.8057 14.2872 24.8206 14.2089C24.8315 14.1518 24.7802 14.1023 24.7235 14.1153C24.6746 14.1265 24.6477 14.1791 24.6672 14.2253ZM24.5452 13.9374C24.5536 13.9572 24.5751 13.9682 24.5961 13.9634L24.8127 13.9137C24.8535 13.9044 24.8849 13.8718 24.8928 13.8306C24.8971 13.8079 24.8938 13.7843 24.8835 13.7636L24.8736 13.744C24.7968 13.5907 24.5671 13.6343 24.5518 13.8051L24.5419 13.9161C24.5412 13.9234 24.5424 13.9307 24.5452 13.9374ZM24.2401 13.2176C24.2808 13.3135 24.4227 13.2912 24.432 13.1874L24.436 13.1424C24.4426 13.0684 24.3706 13.0124 24.3006 13.0369C24.2596 13.0512 24.2322 13.0899 24.2322 13.1333V13.1785C24.2322 13.1919 24.2349 13.2052 24.2401 13.2176ZM23.9347 13.165C23.9805 13.149 24.0308 13.1712 24.0497 13.2159L24.0506 13.218C24.0554 13.2293 24.0579 13.2415 24.0579 13.2539C24.0579 13.3581 23.9114 13.3801 23.8781 13.2814C23.862 13.2337 23.8872 13.1816 23.9347 13.165ZM23.8076 12.1971C23.863 12.3279 24.0579 12.2883 24.0579 12.1463C24.0579 12.126 24.0532 12.106 24.0441 12.0879L24.001 12.0018C23.9701 11.9401 23.8957 11.9143 23.8332 11.9436C23.7712 11.9727 23.7434 12.0455 23.7701 12.1085L23.8076 12.1971ZM23.6147 11.7419C23.6358 11.7918 23.6942 11.8142 23.7433 11.7911L23.763 11.7819C23.8197 11.7553 23.8434 11.6871 23.8153 11.6311C23.7591 11.5189 23.5891 11.5707 23.6051 11.6952L23.6079 11.7167C23.609 11.7254 23.6113 11.7338 23.6147 11.7419ZM23.2707 10.9303C23.2845 10.963 23.3336 10.9497 23.3291 10.9145C23.3263 10.8928 23.3023 10.8809 23.2834 10.892C23.2701 10.8997 23.2647 10.9161 23.2707 10.9303ZM23.1601 10.6693C23.1764 10.7079 23.223 10.7234 23.2592 10.7022C23.2833 10.6881 23.2966 10.661 23.293 10.6333L23.2876 10.591C23.2861 10.579 23.2825 10.5673 23.2771 10.5565L23.1064 10.2158C23.0724 10.1479 22.9695 10.1855 22.9872 10.2593C22.9881 10.2627 22.9892 10.2661 22.9905 10.2693L23.1601 10.6693ZM22.5298 9.18226C22.5344 9.19318 22.5508 9.18777 22.5481 9.17623C22.5464 9.16941 22.5383 9.16655 22.5328 9.17085C22.5293 9.17353 22.5281 9.17822 22.5298 9.18226ZM22.446 8.98465C22.451 8.99648 22.4659 9.00035 22.476 8.99249C22.4834 8.98676 22.4857 8.97661 22.4815 8.96824L22.3012 8.60815L22.3588 8.77874L22.446 8.98465ZM21.8977 7.41239L22.0791 7.77465C22.114 7.84416 22.2193 7.80571 22.2012 7.73011C22.1998 7.72412 22.1975 7.71836 22.1944 7.71301L21.9395 7.2653C21.9254 7.2405 21.8916 7.23567 21.8711 7.25551C21.859 7.26725 21.8547 7.28492 21.8601 7.30091L21.8977 7.41239ZM21.7793 7.06164C21.7839 7.07512 21.8009 7.07926 21.8112 7.06937C21.8175 7.06322 21.8189 7.05354 21.8145 7.04586C21.8029 7.02547 21.7718 7.03941 21.7793 7.06164ZM21.0704 5.73916L21.1543 5.88648C21.2266 6.01345 21.2865 6.14707 21.3333 6.28551L21.13 5.87975L21.0704 5.73916ZM19.2022 4.54392C19.5906 4.01672 19.6505 3.3162 19.3573 2.73069C19.1887 2.43471 18.7662 2.42334 18.582 2.70983L11.1479 14.2713C11.0075 14.4896 11.1391 14.78 11.3958 14.8183C11.5268 14.8379 11.6579 14.7835 11.7365 14.6768L19.2022 4.54392ZM11.1681 15.4482C11.3143 15.2498 11.1969 14.9671 10.9531 14.9307C10.8259 14.9117 10.6993 14.969 10.6297 15.0773L10.4622 15.3377C10.4213 15.4013 10.4134 15.4806 10.4409 15.5511C10.4756 15.6399 10.5604 15.6991 10.6557 15.7011L10.7709 15.7035C10.9001 15.7062 11.0225 15.6459 11.0991 15.542L11.1681 15.4482ZM11.773 15.7245C11.5284 15.7193 11.3912 15.4406 11.5363 15.2437L11.5774 15.1879C11.6443 15.0971 11.756 15.0507 11.8675 15.0674C12.1046 15.1028 12.2097 15.3857 12.0532 15.5673L12.008 15.6197C11.9492 15.688 11.863 15.7264 11.773 15.7245ZM10.7549 16.009C10.7943 15.9555 10.7571 15.8798 10.6906 15.8784C10.6322 15.8772 10.5913 15.9358 10.6126 15.9902C10.6361 16.0504 10.7166 16.061 10.7549 16.009ZM10.7719 16.3979C10.7533 16.3504 10.7604 16.2968 10.7907 16.2557L10.981 15.9974C11.0324 15.9277 11.1144 15.8873 11.2009 15.8891C11.4259 15.8939 11.5439 16.1584 11.3969 16.329L11.3648 16.3662C11.3168 16.422 11.2493 16.4574 11.1761 16.4651L10.9259 16.4916C10.8593 16.4986 10.7963 16.4603 10.7719 16.3979ZM10.439 16.4378C10.5045 16.3489 10.5199 16.2327 10.4797 16.1298L10.4297 16.002C10.3989 15.9232 10.3238 15.8708 10.2392 15.869C10.1665 15.8675 10.0982 15.9038 10.0589 15.965L9.81043 16.3514C9.77925 16.3998 9.77698 16.4615 9.8045 16.5121C9.83499 16.5682 9.8963 16.6005 9.95983 16.5937L10.2139 16.5669C10.3037 16.5574 10.3854 16.5105 10.439 16.4378ZM10.6176 16.5242C10.6073 16.5253 10.6007 16.5136 10.6068 16.5053C10.6124 16.4977 10.6241 16.4993 10.6275 16.508C10.6303 16.5153 10.6254 16.5233 10.6176 16.5242ZM10.1171 16.8748C10.1539 16.8248 10.1138 16.755 10.0522 16.7616C10.0017 16.7669 9.97278 16.8219 9.99703 16.8665C10.022 16.9124 10.0861 16.9168 10.1171 16.8748ZM10.1738 17.1919C10.1549 17.1571 10.1579 17.1146 10.1813 17.0827L10.3941 16.794C10.429 16.7466 10.4822 16.7161 10.5408 16.7099C10.6347 16.6999 10.7236 16.754 10.758 16.842L10.7725 16.8791C10.8014 16.953 10.7871 17.0368 10.7353 17.097C10.7054 17.1316 10.6653 17.1557 10.6208 17.166L10.2862 17.2426C10.2416 17.2528 10.1957 17.2321 10.1738 17.1919ZM10.0314 17.2958C10.03 17.2933 10.0264 17.293 10.0247 17.2954C10.0225 17.2984 10.0252 17.3024 10.0288 17.3016C10.0313 17.301 10.0326 17.2982 10.0314 17.2958ZM10.1821 17.5732C10.1462 17.5072 10.0707 17.4731 9.9974 17.4899L9.94433 17.502C9.8885 17.5148 9.83911 17.5472 9.80513 17.5933L9.53078 17.9657C9.52351 17.9756 9.52342 17.989 9.53055 17.999C9.53787 18.0092 9.55106 18.0134 9.56293 18.0092L10.0672 17.8327C10.0992 17.8215 10.1278 17.802 10.1499 17.7763L10.1618 17.7626C10.2072 17.7098 10.2153 17.6344 10.1821 17.5732ZM10.4499 17.6987C10.4496 17.6989 10.4492 17.6987 10.449 17.6984C10.4489 17.6981 10.4489 17.6978 10.4491 17.6976L10.7565 17.3408C10.7739 17.3207 10.7972 17.3066 10.8231 17.3007C10.8833 17.2869 10.9448 17.32 10.9673 17.3775C10.9934 17.4444 10.9592 17.5204 10.8915 17.5441L10.4499 17.6987ZM10.2038 17.9824C10.2123 17.9724 10.2234 17.9649 10.2358 17.9605L10.3105 17.9344C10.3433 17.9229 10.3797 17.9369 10.3963 17.9675C10.4157 18.0033 10.401 18.0482 10.3641 18.0655L10.2924 18.0991C10.2192 18.1335 10.151 18.0436 10.2038 17.9824ZM9.76539 18.2226C9.7983 18.1844 9.75938 18.1273 9.71178 18.144C9.68078 18.1548 9.66888 18.1924 9.68799 18.2191C9.70656 18.2451 9.74455 18.2468 9.76539 18.2226ZM9.59096 18.4251C9.60029 18.4143 9.601 18.3985 9.59269 18.3868L9.54073 18.3142C9.50333 18.2619 9.43592 18.2405 9.37525 18.2618L9.32702 18.2787C9.30347 18.2869 9.28296 18.3021 9.26816 18.3222C9.19189 18.4257 9.30421 18.5626 9.42063 18.508L9.58065 18.4329C9.5846 18.4311 9.58811 18.4284 9.59096 18.4251ZM9.12 18.9717C9.16271 18.9221 9.10752 18.8494 9.04828 18.8772L9.01302 18.8937C8.97494 18.9116 8.96505 18.9612 8.99338 18.9923C9.01324 19.0141 9.04563 19.019 9.07107 19.0041L9.10468 18.9845C9.11046 18.9811 9.11563 18.9768 9.12 18.9717ZM9.19294 19.2113C9.17885 19.1959 9.17852 19.1723 9.19218 19.1565L9.22091 19.1231C9.22403 19.1195 9.22773 19.1164 9.23186 19.114C9.27613 19.0881 9.32078 19.1469 9.28391 19.1826L9.25226 19.2132C9.2355 19.2294 9.20865 19.2286 9.19294 19.2113ZM8.4005 19.8068C8.46778 19.7287 8.37532 19.6152 8.28636 19.6672C8.27565 19.6735 8.26634 19.6819 8.25898 19.6919L8.25784 19.6934C8.22977 19.7315 8.23551 19.7848 8.27105 19.816C8.30914 19.8495 8.3674 19.8452 8.4005 19.8068ZM8.17846 20.0645C8.20457 20.0342 8.20139 19.9886 8.17135 19.9622L8.16715 19.9585C8.13301 19.9285 8.0805 19.9341 8.05354 19.9707C8.00016 20.0432 8.09667 20.1297 8.16781 20.0746C8.17167 20.0716 8.17527 20.0682 8.17846 20.0645ZM7.97485 19.5557C8.01151 19.5879 8.06469 19.593 8.10682 19.5684L8.13204 19.5536C8.14517 19.5459 8.1566 19.5356 8.16562 19.5234C8.23448 19.4299 8.13308 19.3064 8.02799 19.3557L8.00153 19.3681C7.92764 19.4027 7.91355 19.5018 7.97485 19.5557ZM8.27363 18.7414C8.19261 18.8674 8.32693 19.0209 8.46255 18.9573C8.55358 18.9146 8.57723 18.7959 8.50951 18.7216L8.42454 18.6283C8.41041 18.6128 8.38838 18.6073 8.36858 18.6142C8.35757 18.618 8.34816 18.6255 8.34186 18.6353L8.27363 18.7414ZM8.71373 18.4934C8.65085 18.5154 8.63087 18.5944 8.67574 18.6437C8.71523 18.687 8.78449 18.6834 8.81927 18.6362C8.8735 18.5626 8.80003 18.4632 8.71373 18.4934ZM8.76217 19.0114C8.76037 19.0122 8.7588 19.0135 8.75762 19.0151L8.71968 19.0666C8.67817 19.1229 8.74365 19.1957 8.80406 19.1604C8.83941 19.1397 8.84673 19.0917 8.81914 19.0614L8.77606 19.0141C8.77253 19.0103 8.7669 19.0091 8.76217 19.0114ZM7.68872 19.651C7.71317 19.613 7.76572 19.6057 7.79967 19.6355C7.83753 19.6688 7.83171 19.7293 7.78821 19.7548C7.72111 19.794 7.64668 19.7164 7.68872 19.651ZM8.76942 20.4878C8.59693 20.3362 8.33696 20.3424 8.17188 20.502C7.97385 20.6935 7.99795 21.0177 8.22212 21.1777L13.8365 25.1874C13.9116 25.241 14.0104 25.1641 13.9768 25.0782C13.9714 25.0644 13.9628 25.0521 13.9516 25.0423L8.76942 20.4878ZM14.1126 24.9461C14.1141 24.95 14.1166 24.9534 14.1197 24.9562L14.1641 24.9952C14.1833 25.0121 14.2115 24.9896 14.1993 24.9672C14.1984 24.9655 14.1973 24.964 14.1961 24.9627L14.1563 24.919C14.1368 24.8976 14.1021 24.9191 14.1126 24.9461ZM13.7254 24.4461C13.7305 24.4517 13.7345 24.4581 13.7372 24.4652C13.7607 24.5253 13.6877 24.5765 13.6392 24.5339L8.92463 20.3904C8.74478 20.2323 8.73817 19.9544 8.9103 19.788C9.07643 19.6273 9.34245 19.6358 9.49809 19.8066L13.7254 24.4461ZM18.3227 28.6079C18.3057 28.6008 18.2918 28.6229 18.3057 28.6351L18.3347 28.6606C18.3425 28.6675 18.3546 28.6664 18.361 28.6581C18.3674 28.65 18.3657 28.6381 18.3572 28.6321L18.3258 28.6097C18.3248 28.609 18.3238 28.6084 18.3227 28.6079ZM18.5371 28.7606C18.5249 28.7519 18.5081 28.7543 18.4989 28.7661L18.4938 28.7726C18.4866 28.7819 18.4878 28.7952 18.4967 28.803C18.4991 28.8051 18.502 28.8067 18.505 28.8076L18.513 28.8099C18.5431 28.8189 18.5627 28.7788 18.5371 28.7606ZM18.9448 29.156C18.9535 29.1415 18.9462 29.1227 18.9299 29.1178C18.9033 29.1099 18.8845 29.1438 18.9054 29.1622C18.9176 29.1729 18.9365 29.1699 18.9448 29.156ZM19.0923 29.2502C19.075 29.2792 19.0808 29.3164 19.1062 29.3387L19.2092 29.4292C19.2194 29.4381 19.2317 29.4442 19.245 29.4469C19.3263 29.4631 19.3722 29.357 19.3047 29.3088L19.1931 29.2291C19.1598 29.2053 19.1133 29.215 19.0923 29.2502ZM19.6936 29.3447C19.6819 29.3412 19.6743 29.3567 19.6842 29.3638L19.7883 29.4381C19.7969 29.4442 19.8089 29.4409 19.8131 29.4313C19.8165 29.4236 19.8136 29.4145 19.8063 29.4103L19.6959 29.3457C19.6952 29.3452 19.6944 29.3449 19.6936 29.3447ZM19.9588 29.5338C19.9652 29.5193 19.9829 29.5136 19.9966 29.5216L20.0419 29.5481C20.0702 29.5646 20.0537 29.608 20.0216 29.6016C20.0176 29.6008 20.0138 29.5991 20.0105 29.5967L19.9677 29.5662C19.9574 29.5589 19.9537 29.5454 19.9588 29.5338ZM20.9662 29.7227C20.9589 29.7205 20.9511 29.7246 20.9489 29.732L20.9433 29.7502C20.9379 29.7678 20.9489 29.7863 20.967 29.7899C21.0038 29.7972 21.0197 29.7452 20.9852 29.7306L20.9662 29.7227ZM23.1662 30.6575C23.1013 30.6497 23.0429 30.6972 23.037 30.7623C23.0312 30.8275 23.0818 30.8847 23.1473 30.8883C23.2767 30.8954 23.3244 30.7171 23.2049 30.6667C23.195 30.6625 23.1845 30.6597 23.1738 30.6584L23.1662 30.6575ZM24.0319 30.7613C23.998 30.7572 23.9854 30.8045 24.0169 30.8178C24.0364 30.826 24.0579 30.8117 24.0579 30.7906C24.0579 30.7757 24.0468 30.7631 24.0319 30.7613ZM24.3092 30.7945C24.2683 30.7896 24.2322 30.8216 24.2322 30.8629C24.2322 30.8906 24.2488 30.9156 24.2743 30.9263L24.3211 30.9461C24.3327 30.951 24.345 30.9538 24.3575 30.9545L24.7382 30.9753C24.8143 30.9795 24.833 30.8712 24.76 30.8495C24.7565 30.8485 24.7529 30.8477 24.7493 30.8473L24.3092 30.7945ZM25.8989 30.9851C25.8879 30.9838 25.8847 30.9995 25.8953 31.0027C25.9015 31.0045 25.9076 30.9993 25.9068 30.9929C25.9062 30.9888 25.903 30.9856 25.8989 30.9851ZM26.1098 31.0104C26.0969 31.0088 26.086 31.0198 26.0876 31.0327C26.0888 31.0423 26.0967 31.0496 26.1063 31.0501L26.3093 31.0612C26.3259 31.0621 26.329 31.0379 26.3126 31.0347L26.1098 31.0104ZM27.6295 29.6121C27.8377 30.4801 28.5641 31.1267 29.4503 31.2329C29.5973 31.241 29.7059 31.0981 29.6589 30.9586L25.9622 20.0034C25.8831 19.7692 25.5754 19.7166 25.4232 19.9114C25.3648 19.986 25.3437 20.0831 25.3658 20.1752L27.6295 29.6121ZM26.3397 30.8601C27.0433 30.9444 27.6155 30.3016 27.4502 29.6125L25.3279 20.7647C25.2736 20.5386 24.9822 20.4753 24.839 20.6584C24.7932 20.7169 24.7728 20.7913 24.7823 20.8649L26.0217 30.5193C26.0435 30.6894 26.1716 30.8266 26.3397 30.8601ZM24.8427 30.5619C25.3514 30.6632 25.8095 30.2356 25.7435 29.7212L24.686 21.4839C24.6602 21.2832 24.4052 21.2132 24.2806 21.3725C24.2492 21.4126 24.2322 21.462 24.2322 21.5129V29.8178C24.2322 30.1797 24.4878 30.4912 24.8427 30.5619ZM23.533 30.301C23.8046 30.3551 24.0579 30.1473 24.0579 29.8703V22.0025C24.0579 21.8894 23.9149 21.8401 23.8453 21.9292C23.8311 21.9473 23.8225 21.969 23.8205 21.9919L23.1311 29.7092C23.1072 29.9769 23.2753 30.2245 23.533 30.301ZM22.4 29.9645C22.6686 30.0443 22.9428 29.858 22.9677 29.579L23.5987 22.5157C23.6068 22.4255 23.4924 22.3804 23.4367 22.4516C23.4278 22.463 23.4217 22.4764 23.419 22.4906L22.0908 29.4565C22.0482 29.6801 22.1818 29.8997 22.4 29.9645ZM21.0244 29.5559C21.4651 29.6868 21.9225 29.4084 22.0086 28.9568L23.1389 23.029C23.1515 22.963 23.0669 22.9246 23.0255 22.9775C23.0207 22.9837 23.017 22.9907 23.0147 22.9982L21.0114 29.5281C21.008 29.5393 21.0136 29.5513 21.0244 29.5559ZM22.6185 23.498C22.6389 23.4719 22.6802 23.4935 22.6705 23.5252L20.9643 29.0868C20.8998 29.2971 20.6677 29.4055 20.4651 29.32C20.274 29.2395 20.186 29.018 20.2696 28.8283L22.6147 23.5044C22.6157 23.5021 22.6169 23.5 22.6185 23.498ZM23.2066 22.3728C23.1974 22.4028 23.2366 22.4232 23.2559 22.3985C23.2587 22.395 23.2606 22.3908 23.2614 22.3864L23.2674 22.355C23.2729 22.3259 23.2337 22.311 23.2185 22.3365C23.2174 22.3383 23.2165 22.3403 23.2159 22.3423L23.2066 22.3728ZM23.5613 21.7621C23.558 21.7676 23.5557 21.7736 23.5545 21.7799L23.5402 21.855C23.5287 21.9154 23.6062 21.9506 23.6441 21.9021C23.651 21.8932 23.6553 21.8825 23.6563 21.8712L23.6631 21.795C23.6683 21.7369 23.5912 21.712 23.5613 21.7621ZM23.7208 21.1493C23.7205 21.1526 23.7194 21.1559 23.7177 21.1588C23.7047 21.1806 23.6712 21.1679 23.676 21.143L23.6918 21.0602C23.692 21.0589 23.6924 21.0575 23.693 21.0562C23.7014 21.0371 23.7301 21.0445 23.7283 21.0653L23.7208 21.1493ZM23.9002 21.1943C23.8936 21.2052 23.8897 21.2175 23.8885 21.2302L23.8792 21.3341C23.8713 21.4229 23.984 21.4674 24.0389 21.3972C24.0512 21.3814 24.0579 21.362 24.0579 21.342V21.2378C24.0579 21.1516 23.9443 21.1203 23.9002 21.1943ZM24.0579 20.5735C24.0579 20.5834 24.0552 20.5932 24.0501 20.6018C24.02 20.6522 23.9424 20.6271 23.9476 20.5686L23.957 20.4635C23.9575 20.458 23.9589 20.4526 23.9611 20.4476C23.9832 20.3975 24.0579 20.4133 24.0579 20.468V20.5735ZM24.255 20.5998C24.2401 20.6248 24.2322 20.6533 24.2322 20.6824C24.2322 20.8356 24.4259 20.9023 24.5203 20.7816L24.5431 20.7524C24.57 20.718 24.5821 20.6742 24.5765 20.6309C24.5567 20.4769 24.3536 20.4346 24.274 20.5679L24.255 20.5998ZM24.4749 19.8395C24.4784 19.8665 24.4725 19.894 24.4586 19.9173C24.3956 20.0229 24.2322 19.9806 24.2322 19.8576C24.2322 19.8408 24.2358 19.824 24.2425 19.8087C24.2921 19.6963 24.4593 19.7177 24.4749 19.8395ZM24.6991 19.8556C24.6744 19.8971 24.6643 19.9456 24.6704 19.9935C24.6948 20.1835 24.9362 20.2498 25.0541 20.0989L25.0766 20.0702C25.1175 20.0178 25.1323 19.9497 25.1169 19.8851C25.0713 19.6951 24.818 19.6565 24.7178 19.8243L24.6991 19.8556ZM24.9171 19.0525C24.9277 19.0966 24.9206 19.1432 24.8973 19.1822L24.8797 19.2118C24.796 19.352 24.5824 19.3076 24.5616 19.1456C24.5576 19.1146 24.5621 19.0831 24.5747 19.0545L24.5886 19.0229C24.6558 18.8704 24.8783 18.8904 24.9171 19.0525ZM25.1759 19.0567C25.1401 19.1168 25.1291 19.1885 25.1454 19.2566L25.1487 19.2702C25.2012 19.489 25.4831 19.5503 25.6217 19.3731C25.6774 19.3019 25.6936 19.2073 25.6646 19.1216L25.6602 19.1084C25.587 18.8915 25.2932 18.8601 25.1759 19.0567ZM25.3669 18.2394C25.3881 18.3022 25.381 18.3718 25.347 18.4288C25.2428 18.6034 24.9782 18.5595 24.9308 18.3617C24.9192 18.3135 24.9237 18.2624 24.9436 18.217C25.027 18.0277 25.3008 18.0434 25.3669 18.2394ZM25.1701 17.1103C25.1809 17.1423 25.2253 17.1443 25.2389 17.1134C25.2487 17.0912 25.2346 17.0656 25.2106 17.062C25.1833 17.058 25.1613 17.0842 25.1701 17.1103ZM24.9134 17.0176C24.9401 17.0216 24.9623 17.0402 24.9709 17.0657L25.0733 17.369C25.0881 17.4129 25.0859 17.4607 25.0673 17.5031L25.0535 17.5343C24.9864 17.6867 24.7641 17.6667 24.7252 17.5048C24.718 17.4746 24.719 17.443 24.7281 17.4132L24.8341 17.0676C24.8445 17.0336 24.8783 17.0124 24.9134 17.0176ZM24.6306 16.7968C24.6878 16.8054 24.7427 16.7708 24.7596 16.7155L24.7839 16.6365C24.7969 16.5939 24.7963 16.5483 24.782 16.5061L24.6757 16.1908C24.6718 16.1792 24.661 16.1713 24.6487 16.171C24.6345 16.1707 24.6222 16.1807 24.6195 16.1947L24.5321 16.6531C24.5288 16.6702 24.5292 16.6878 24.5333 16.7047L24.5342 16.7085C24.5453 16.7548 24.5835 16.7898 24.6306 16.7968ZM24.3121 16.7492C24.3252 16.7512 24.3376 16.7424 24.34 16.7294L24.3478 16.689C24.3485 16.6853 24.3484 16.6814 24.3475 16.6777C24.3404 16.6483 24.2975 16.6514 24.2948 16.6816L24.2912 16.7226C24.29 16.7356 24.2992 16.7473 24.3121 16.7492ZM24.4267 16.1664C24.4152 16.1661 24.4067 16.1768 24.4093 16.1879C24.4137 16.2062 24.4399 16.2056 24.4435 16.1871C24.4455 16.1765 24.4375 16.1666 24.4267 16.1664ZM24.5207 15.7315C24.5247 15.7435 24.5256 15.7563 24.5232 15.7687L24.4926 15.9295C24.4858 15.9649 24.4545 15.9903 24.4185 15.9896L24.3736 15.9886C24.3665 15.9885 24.3603 15.9835 24.3586 15.9766C24.3583 15.9749 24.3581 15.9732 24.3583 15.9715L24.3782 15.7484C24.3853 15.6694 24.4953 15.6563 24.5207 15.7315ZM24.5498 15.2719C24.5616 15.3068 24.612 15.3033 24.6189 15.2672C24.6234 15.2436 24.6038 15.2224 24.5799 15.2249C24.5571 15.2273 24.5425 15.2502 24.5498 15.2719ZM24.454 14.988C24.4678 15.029 24.5082 15.0549 24.5512 15.0503L24.5736 15.048C24.6263 15.0424 24.6692 15.0029 24.6792 14.9508L24.7051 14.8147C24.7096 14.7911 24.707 14.7666 24.6976 14.7445C24.6483 14.628 24.4759 14.6551 24.4646 14.7811L24.4495 14.9503C24.4484 14.963 24.4499 14.9759 24.454 14.988ZM24.2348 14.3384C24.2518 14.3887 24.3255 14.38 24.3302 14.3271L24.335 14.2734C24.3381 14.2386 24.3063 14.2109 24.2722 14.2187C24.2488 14.224 24.2322 14.2449 24.2322 14.2689V14.3227C24.2322 14.328 24.2331 14.3333 24.2348 14.3384ZM23.9938 14.2825C24.0138 14.2779 24.034 14.2892 24.0406 14.3086L24.0557 14.3536C24.0572 14.3579 24.0579 14.3624 24.0579 14.367C24.0579 14.4169 23.9865 14.4253 23.9749 14.3768L23.9639 14.3307C23.9587 14.3091 23.9721 14.2874 23.9938 14.2825ZM24.3122 14.0284C24.2716 14.0377 24.2322 14.0071 24.2322 13.9654C24.2322 13.8948 24.3295 13.876 24.3571 13.941C24.3612 13.9507 24.3629 13.9613 24.3619 13.9717C24.3595 13.9993 24.3391 14.0223 24.3122 14.0284ZM23.9631 14.0791C23.968 14.0937 23.9593 14.1093 23.9442 14.1128C23.9293 14.1162 23.9146 14.1059 23.9126 14.0907C23.9086 14.0595 23.953 14.0493 23.9631 14.0791ZM23.7652 12.9421C23.7658 12.947 23.7669 12.9518 23.7685 12.9565C23.7817 12.9958 23.8245 13.0167 23.8637 13.003L23.8682 13.0014C23.911 12.9864 23.9322 12.9385 23.9145 12.8968C23.8789 12.8129 23.7536 12.8517 23.7652 12.9421ZM23.4406 11.7828C23.4401 11.7789 23.4391 11.7751 23.4375 11.7715L23.3501 11.5652C23.3385 11.5377 23.2971 11.5513 23.3041 11.5803L23.4184 11.9191C23.4222 11.9303 23.4349 11.9358 23.4457 11.9307C23.4535 11.9271 23.4581 11.9188 23.457 11.9102L23.4406 11.7828ZM22.8596 12.2056C23.0769 12.1037 23.1926 11.8632 23.1366 11.6298C23.0418 11.3489 22.7129 11.2258 22.4569 11.3756L15.7912 15.2759C15.7008 15.3288 15.7273 15.4659 15.8308 15.4813C15.8524 15.4846 15.8745 15.4813 15.8943 15.4721L22.8596 12.2056ZM15.3282 15.7375C15.4021 15.7029 15.3861 15.5934 15.3054 15.5813C15.2868 15.5785 15.2678 15.5822 15.2515 15.5917L15.1475 15.6526C15.0804 15.6918 15.1071 15.7944 15.1847 15.796C15.1966 15.7962 15.2083 15.7938 15.219 15.7887L15.3282 15.7375ZM15.8357 15.8096C15.7774 15.8084 15.7606 15.7293 15.8134 15.7046L15.8739 15.6762C15.8844 15.6713 15.896 15.6696 15.9074 15.6713C15.9679 15.6804 15.9758 15.7643 15.9181 15.7845L15.8551 15.8066C15.8488 15.8087 15.8423 15.8098 15.8357 15.8096ZM14.654 16.0537C14.7005 16.0319 14.6858 15.9622 14.6344 15.9611C14.6254 15.9609 14.6166 15.9632 14.6088 15.9678L14.5008 16.031C14.4609 16.0543 14.481 16.1155 14.527 16.1107C14.5317 16.1102 14.5364 16.1089 14.5407 16.1068L14.654 16.0537ZM15.183 16.0413C15.1616 16.0435 15.1534 16.0141 15.1729 16.005L15.2346 15.976C15.2377 15.9746 15.2412 15.9738 15.2447 15.9739C15.2698 15.9744 15.2754 16.0095 15.2516 16.0178L15.1874 16.0403C15.186 16.0408 15.1845 16.0411 15.183 16.0413ZM13.9689 16.375C13.9834 16.3682 13.9773 16.3464 13.9614 16.3481C13.9594 16.3483 13.9574 16.3489 13.9557 16.3499L13.8623 16.4046C13.8532 16.4099 13.8587 16.4239 13.8691 16.4216C13.8697 16.4214 13.8703 16.4212 13.8709 16.4209L13.9689 16.375ZM13.2266 16.5688C13.2337 16.5672 13.2405 16.5645 13.2467 16.5608C13.3131 16.522 13.2796 16.4202 13.2032 16.4283L13.1769 16.431C13.1634 16.4325 13.1506 16.4376 13.1399 16.4459C13.0781 16.4938 13.1246 16.5922 13.2008 16.5747L13.2266 16.5688ZM12.5413 16.9096C12.5444 16.9071 12.5481 16.9054 12.552 16.9045C12.5828 16.8974 12.6006 16.9389 12.5734 16.9548C12.5718 16.9557 12.5702 16.9565 12.5685 16.9571C12.539 16.9674 12.5165 16.9287 12.5413 16.9096ZM12.4448 16.748C12.4617 16.7441 12.4776 16.7366 12.4913 16.7259C12.5865 16.6522 12.5253 16.5 12.4056 16.5126L12.3269 16.5209C12.2993 16.5239 12.2735 16.5359 12.2536 16.5552C12.1631 16.6427 12.2451 16.7937 12.3677 16.7656L12.4448 16.748ZM11.6723 17.1173C11.6822 17.1077 11.6946 17.1009 11.7081 17.0979L11.8345 17.0689C11.9063 17.0524 11.9502 17.1451 11.892 17.1902C11.8861 17.1947 11.8796 17.1982 11.8726 17.2007L11.7501 17.2436C11.6733 17.2705 11.6137 17.1739 11.6723 17.1173ZM11.5547 16.9519C11.5857 16.9448 11.6141 16.9294 11.6369 16.9073C11.7561 16.7921 11.6623 16.5912 11.4974 16.6087L11.4512 16.6136C11.4031 16.6187 11.3587 16.6419 11.327 16.6786L11.0312 17.022C11.0247 17.0296 11.0229 17.0401 11.0265 17.0494C11.0314 17.0618 11.0446 17.0688 11.0576 17.0658L11.5547 16.9519ZM11.1233 17.2971C11.111 17.2656 11.1296 17.2304 11.1626 17.2229C11.2173 17.2103 11.2539 17.2777 11.2135 17.3168C11.185 17.3443 11.1377 17.334 11.1233 17.2971ZM11.0956 17.7059C11.0914 17.6952 11.0777 17.6922 11.0695 17.7002C11.0564 17.7128 11.071 17.734 11.0875 17.7263C11.0951 17.7227 11.0987 17.7138 11.0956 17.7059ZM10.6096 17.9007C10.5929 17.9169 10.5654 17.9126 10.5543 17.8922C10.544 17.8732 10.5532 17.8494 10.5736 17.8423C10.6092 17.8298 10.6367 17.8745 10.6096 17.9007ZM10.0783 18.4145C10.086 18.407 10.0774 18.3946 10.0677 18.3991L9.89922 18.4781C9.88908 18.4829 9.88574 18.4957 9.89225 18.5048C9.89764 18.5123 9.90788 18.5145 9.91588 18.5098L10.0765 18.4158C10.0771 18.4155 10.0777 18.415 10.0783 18.4145ZM9.73233 18.5821C9.74183 18.5954 9.73787 18.614 9.72377 18.6222C9.69671 18.6381 9.66932 18.6027 9.68978 18.5789C9.69221 18.5761 9.69525 18.5738 9.69862 18.5722C9.71017 18.5668 9.72394 18.5704 9.73136 18.5808L9.73233 18.5821ZM9.66269 19.1391C9.49349 19.2701 9.47205 19.5177 9.61619 19.6758L13.4441 23.877C13.4669 23.902 13.5073 23.8769 13.495 23.8454C13.4941 23.8431 13.4929 23.8408 13.4914 23.8388L10.1854 19.2157C10.0644 19.0465 9.82711 19.0117 9.66269 19.1391ZM9.06909 19.3766C9.04482 19.3954 9.01418 19.3631 9.03421 19.3398C9.04419 19.3282 9.06203 19.328 9.07232 19.3393C9.08233 19.3503 9.08084 19.3675 9.06909 19.3766ZM10.3385 18.6157C10.2066 18.7178 10.1791 18.9059 10.2761 19.0415L13.2053 23.1377L10.8012 18.7129C10.7099 18.5448 10.4897 18.4985 10.3385 18.6157ZM11.1262 18.0056C10.9191 18.1659 10.8589 18.4528 10.9839 18.6829L12.7423 21.9193L11.2263 18.0404C11.2107 18.0005 11.1632 17.9839 11.1262 18.0056ZM12.0115 17.4876C11.6301 17.7107 11.4676 18.1782 11.6285 18.5898L13.4101 23.1484L14.0334 24.2957L14.7916 25.3559L15.6641 26.3135L16.7519 27.2696L17.9107 28.0971C18.26 28.3015 18.7066 28.2161 18.9559 27.8973L22.0815 23.9003L22.7225 22.8264L23.2577 21.6112L23.658 20.3063L23.9177 18.9442L24.0579 17.3749C24.0579 17.0961 23.8539 16.8592 23.5781 16.818L18.3698 16.0394L17.1259 16.0133L15.8533 16.1479L14.5803 16.4397L13.2616 16.9013L12.0115 17.4876ZM18.5197 15.8659L23.606 15.9725C23.8026 15.9766 23.9569 15.8049 23.9319 15.6098C23.9096 15.4363 23.7528 15.3124 23.5789 15.3308L18.5197 15.8659ZM24.0579 16.5915C24.0259 16.342 23.8162 16.1536 23.5647 16.1483L19.7588 16.0685L23.9395 16.6935C24.0019 16.7028 24.0579 16.6545 24.0579 16.5915ZM22.1486 24.1291L19.5213 28.5314C19.4229 28.6963 19.493 28.9101 19.6699 28.9847C19.829 29.0518 20.0124 28.9789 20.082 28.8209L22.1486 24.1291ZM18.8025 28.6189C19.0145 28.7084 19.26 28.6279 19.378 28.4303L21.3648 25.1012L18.7655 28.4252C18.7166 28.4877 18.734 28.5789 18.8025 28.6189ZM24.0173 19.7884C24.0153 19.8114 24.0469 19.8195 24.0562 19.7984C24.0573 19.7958 24.0579 19.793 24.0579 19.7902V19.7093C24.0579 19.6901 24.0308 19.686 24.0252 19.7044C24.0248 19.7055 24.0246 19.7067 24.0245 19.7078L24.0173 19.7884ZM24.2353 19.0196C24.2332 19.0263 24.2322 19.0331 24.2322 19.0401V19.0611C24.2322 19.138 24.3373 19.1601 24.3684 19.0898C24.3736 19.0779 24.3755 19.0649 24.3738 19.052L24.3711 19.0312C24.3616 18.9567 24.2573 18.9479 24.2353 19.0196ZM24.2756 18.2868C24.276 18.2898 24.2757 18.293 24.2748 18.2959C24.2675 18.3198 24.2322 18.3145 24.2322 18.2895V18.2276C24.2322 18.2265 24.2323 18.2254 24.2325 18.2243C24.2363 18.2044 24.2651 18.2052 24.2677 18.2253L24.2756 18.2868ZM24.4615 18.2821C24.4565 18.2985 24.455 18.3158 24.4572 18.3328C24.4728 18.4539 24.6379 18.4778 24.6871 18.366L24.7125 18.3083C24.7235 18.2835 24.726 18.2557 24.7197 18.2293C24.6902 18.1062 24.5171 18.1009 24.48 18.2218L24.4615 18.2821ZM24.5287 17.433C24.5318 17.446 24.5314 17.4596 24.5274 17.4723L24.4927 17.5858C24.4711 17.6559 24.3692 17.6472 24.3599 17.5744C24.3589 17.5673 24.3592 17.5601 24.3605 17.553L24.3827 17.4365C24.3978 17.3575 24.5099 17.3548 24.5287 17.433ZM24.6672 17.0167C24.658 17.0467 24.615 17.0454 24.6077 17.0148C24.6026 16.9935 24.6206 16.9739 24.6423 16.9771C24.661 16.9799 24.6728 16.9986 24.6672 17.0167ZM24.278 16.9372C24.2797 16.9499 24.2979 16.9504 24.3003 16.9378C24.3015 16.9315 24.2972 16.9255 24.2909 16.9246C24.2835 16.9235 24.2771 16.9297 24.278 16.9372ZM24.2384 15.261C24.2349 15.2614 24.2322 15.2644 24.2322 15.2679V15.424L24.2461 15.2685C24.2465 15.2642 24.2428 15.2606 24.2384 15.261ZM24.2696 14.9873C24.2704 14.9899 24.2707 14.9925 24.2705 14.9952L24.264 15.0678C24.2633 15.0754 24.2574 15.0814 24.2498 15.0822C24.2404 15.0832 24.2322 15.0758 24.2322 15.0664V14.9935C24.2322 14.9717 24.2626 14.9667 24.2696 14.9873ZM23.3343 14.2525C23.5595 14.2009 23.6993 13.9755 23.6454 13.7508C23.588 13.5116 23.3365 13.3744 23.1043 13.4557L17.1043 15.5561C17.0445 15.577 17.0527 15.664 17.1153 15.6734C17.1228 15.6745 17.1305 15.6742 17.1379 15.6725L23.3343 14.2525ZM17.7595 15.7687C17.7571 15.769 17.7547 15.7689 17.7523 15.7686C17.7215 15.764 17.7199 15.7202 17.7502 15.7132L23.3662 14.4263C23.5815 14.3769 23.7925 14.5241 23.8206 14.7432C23.8474 14.9513 23.6977 15.1406 23.4891 15.1627L17.7595 15.7687ZM16.5237 15.8133C16.5511 15.807 16.5496 15.7673 16.5217 15.7632C16.5176 15.7625 16.5134 15.7629 16.5095 15.7643L16.4704 15.778C16.446 15.7865 16.4517 15.8226 16.4776 15.8231C16.4795 15.8231 16.4814 15.8229 16.4832 15.8225L16.5237 15.8133ZM16.5201 15.5738C16.5061 15.5786 16.4912 15.5801 16.4765 15.5779C16.3874 15.5645 16.3697 15.4437 16.4513 15.4054L22.7783 12.4383C23.0345 12.3182 23.3366 12.4635 23.4026 12.7387C23.4561 12.9618 23.3321 13.1891 23.1157 13.2648L16.5201 15.5738ZM11.3734 17.5918C11.3862 17.5819 11.3752 17.5617 11.36 17.567L11.2636 17.6007C11.2532 17.6044 11.2479 17.6159 11.2519 17.6262C11.256 17.6367 11.2681 17.6415 11.2783 17.6368L11.3707 17.5934C11.3717 17.593 11.3726 17.5924 11.3734 17.5918ZM10.9101 16.7514C10.9274 16.7959 10.986 16.806 11.0172 16.7697C11.0547 16.7262 11.0196 16.6592 10.9625 16.6653C10.9208 16.6697 10.8948 16.7125 10.9101 16.7514ZM11.9224 15.9876C11.7868 16.1449 11.9137 16.3871 12.1202 16.3652L12.1288 16.3643C12.1795 16.359 12.227 16.3368 12.2637 16.3013C12.4099 16.16 12.3128 15.9124 12.1095 15.9082L12.1009 15.908C12.0325 15.9066 11.9671 15.9358 11.9224 15.9876ZM12.5203 15.2936C12.3697 15.4684 12.4926 15.7396 12.7232 15.7444C12.7959 15.7459 12.8666 15.7184 12.9188 15.6678C13.0812 15.5108 12.9912 15.2354 12.7678 15.202C12.6752 15.1881 12.5814 15.2227 12.5203 15.2936ZM13.1288 14.5874C12.9664 14.7759 13.0754 15.0694 13.3215 15.1062C13.4187 15.1208 13.5172 15.0892 13.5879 15.0209L20.4844 8.35223C21.1272 7.73077 21.321 6.77779 20.9721 5.95464C20.9012 5.81308 20.7091 5.78924 20.6057 5.9092L13.1288 14.5874ZM20.5018 5.01564C20.6448 5.30121 20.6022 5.64476 20.3937 5.88672L12.6724 14.8485C12.5961 14.9371 12.4797 14.9804 12.364 14.9631C12.1102 14.9251 11.9879 14.6308 12.1401 14.4241L19.1569 4.90062C19.5075 4.42476 20.2371 4.48715 20.5018 5.01564ZM22.196 8.84228C21.9206 8.19257 21.079 8.0214 20.5718 8.51192L14.1051 14.7649C13.9371 14.9273 14.0283 15.2119 14.2594 15.2464C14.3355 15.2578 14.4129 15.2376 14.4738 15.1905L22.0514 9.3214C22.1967 9.20881 22.2548 9.01649 22.196 8.84228ZM22.6966 10.3259C22.5288 9.82851 21.9207 9.64493 21.5056 9.96639L15.0519 14.965C14.8891 15.0911 14.9569 15.3507 15.1605 15.3811C15.2132 15.389 15.2671 15.3786 15.3132 15.3517L22.3588 11.2291C22.6713 11.0462 22.8124 10.669 22.6966 10.3259ZM14.614 15.7608C14.7421 15.6859 14.7046 15.4915 14.5578 15.4696L14.4941 15.46C14.4505 15.4535 14.4062 15.4651 14.3714 15.4921C14.2512 15.5852 14.3148 15.7778 14.4668 15.7809L14.5313 15.7823C14.5603 15.7829 14.5889 15.7755 14.614 15.7608ZM13.9252 16.1639C14.0274 16.104 13.9868 15.9475 13.8683 15.9451L13.8311 15.9443C13.8036 15.9437 13.7769 15.9525 13.7552 15.9693C13.6598 16.0432 13.7211 16.1959 13.8411 16.1832L13.8782 16.1793C13.8948 16.1775 13.9108 16.1723 13.9252 16.1639ZM13.0412 16.2678C13.0727 16.2645 13.1027 16.2524 13.1277 16.233C13.2549 16.1345 13.1877 15.9308 13.0268 15.9274L12.9778 15.9264C12.9315 15.9254 12.8867 15.943 12.8534 15.9752C12.7346 16.0901 12.8281 16.2904 12.9925 16.273L13.0412 16.2678ZM13.4577 15.3909C13.3194 15.5246 13.4113 15.7588 13.6036 15.7629L13.656 15.7639C13.7047 15.765 13.7524 15.7492 13.7909 15.7194C13.9392 15.6045 13.8775 15.3679 13.6919 15.3401L13.6402 15.3324C13.5736 15.3224 13.5061 15.344 13.4577 15.3909ZM24.891 16.1761C24.8733 16.1757 24.8606 16.1931 24.8663 16.2099C24.8742 16.2334 24.9077 16.2329 24.915 16.2092C24.9199 16.193 24.908 16.1765 24.891 16.1761ZM23.0875 30.3923C23.0784 30.3904 23.0697 30.3969 23.0688 30.4062C23.0682 30.413 23.0721 30.4194 23.0783 30.422L23.2288 30.4855C23.2326 30.4871 23.2365 30.4881 23.2406 30.4886L23.4823 30.5176C23.5103 30.5209 23.5186 30.4808 23.4916 30.4728L23.0875 30.3923ZM25.965 19.4659C25.9286 19.358 25.9489 19.2391 26.019 19.1494C26.1779 18.9463 26.4964 18.9884 26.597 19.2257L31.2462 30.1948C31.4737 30.7316 31.0598 31.3209 30.4777 31.2891C30.1558 31.2715 29.8772 31.0597 29.7741 30.7542L25.965 19.4659ZM10.3577 17.4073C10.4012 17.3974 10.4322 17.4487 10.403 17.4826C10.3819 17.5071 10.3428 17.5029 10.3274 17.4745C10.3127 17.4476 10.3278 17.4142 10.3577 17.4073ZM9.47392 17.7477C9.44311 17.7895 9.38044 17.7891 9.35022 17.7468C9.31848 17.7024 9.34213 17.64 9.39532 17.6279C9.46441 17.612 9.51597 17.6906 9.47392 17.7477ZM9.65236 16.6263C9.65921 16.6255 9.66313 16.6181 9.65984 16.612C9.65633 16.6056 9.64718 16.6052 9.6432 16.6114C9.63881 16.6182 9.64428 16.6271 9.65236 16.6263ZM9.47517 16.5493C9.4334 16.6142 9.36442 16.6567 9.28762 16.6648L9.23597 16.6703C9.00137 16.6951 8.83715 16.444 8.95392 16.239C9.06628 16.0418 9.35158 16.0447 9.45995 16.2441L9.48474 16.2898C9.52916 16.3715 9.52549 16.471 9.47517 16.5493ZM8.98917 16.874C9.10885 16.8613 9.18992 16.9929 9.12484 17.0941C9.07005 17.1793 8.94657 17.1823 8.88764 17.0999C8.82375 17.0106 8.87994 16.8855 8.98917 16.874ZM9.55639 16.0555C9.60509 16.1451 9.73203 16.1498 9.78721 16.064C9.84396 15.9757 9.78203 15.8594 9.67713 15.8572C9.57413 15.855 9.5072 15.9649 9.55639 16.0555ZM10.2563 15.6579C10.2467 15.6729 10.2572 15.6927 10.2751 15.6931C10.2913 15.6934 10.3027 15.6771 10.2968 15.6619C10.29 15.6446 10.2664 15.6422 10.2563 15.6579ZM10.1464 15.277C10.1813 15.3662 10.1712 15.4668 10.1194 15.5473C10.0632 15.6347 9.96573 15.6866 9.86189 15.6844L9.8226 15.6836C9.57634 15.6784 9.42513 15.4119 9.54705 15.1978C9.68235 14.9603 10.0326 14.9858 10.1321 15.2404L10.1464 15.277ZM10.2298 15.0109C10.2668 15.1054 10.3953 15.1182 10.4502 15.0329C10.499 14.957 10.4533 14.856 10.364 14.8426C10.2695 14.8285 10.195 14.9219 10.2298 15.0109ZM10.4233 14.673C10.5668 14.6944 10.7094 14.6298 10.7878 14.5078L18.6409 2.29473C18.7935 2.05739 18.8016 1.75493 18.662 1.50973C18.3713 0.999257 17.6355 0.999195 17.3448 1.50962L10.1576 14.1261C10.0294 14.3511 10.1672 14.6347 10.4233 14.673ZM22.043 7.08931C22.042 7.09023 22.0418 7.09168 22.0425 7.09283C22.0441 7.09574 22.0486 7.09398 22.0478 7.09072C22.0473 7.08854 22.0446 7.08775 22.043 7.08931ZM22.7558 8.6988C22.7152 8.62753 22.6061 8.67065 22.6253 8.7504C22.6373 8.80043 22.6969 8.82141 22.7376 8.7899C22.7655 8.7683 22.7732 8.72946 22.7558 8.6988ZM22.9341 9.01188C22.9024 8.95625 22.8288 8.94156 22.7782 8.98076C22.7384 9.01154 22.726 9.06613 22.7485 9.11108L22.9146 9.44255C22.9726 9.55842 23.1482 9.50488 23.1317 9.37634C23.1297 9.36145 23.1249 9.34708 23.1175 9.33403L22.9341 9.01188ZM23.022 8.81287C23.0324 8.83121 23.0605 8.82182 23.0578 8.80089C23.0559 8.78613 23.0387 8.77901 23.0269 8.78812C23.0193 8.79399 23.0172 8.80454 23.022 8.81287ZM23.675 10.313C23.6059 10.1916 23.42 10.2538 23.4378 10.3923L23.4532 10.5119C23.4539 10.5173 23.4554 10.5224 23.4578 10.5272C23.4702 10.5518 23.5007 10.5609 23.5245 10.547L23.6286 10.4861C23.6888 10.4508 23.7095 10.3736 23.675 10.313ZM23.9032 10.7138C23.8598 10.6377 23.7626 10.6116 23.6869 10.6559C23.6153 10.6978 23.5885 10.7881 23.6257 10.8623L24.0149 11.6394C24.0204 11.6504 24.0337 11.655 24.0449 11.6497C24.0528 11.646 24.0579 11.638 24.0579 11.6292V11.0834C24.0579 11.0192 24.0412 10.9562 24.0095 10.9004L23.9032 10.7138ZM23.9925 10.5172C24.0102 10.5484 24.0579 10.5358 24.0579 10.4999C24.0579 10.4728 24.0286 10.456 24.0052 10.4696C23.9887 10.4793 23.983 10.5005 23.9925 10.5172ZM24.3266 11.4574C24.301 11.4123 24.2322 11.4305 24.2322 11.4824C24.2322 11.5194 24.2707 11.5438 24.3042 11.5281C24.3309 11.5156 24.3412 11.483 24.3266 11.4574ZM24.5088 11.7773C24.4706 11.7102 24.3873 11.6838 24.3174 11.7166C24.2654 11.7409 24.2322 11.7932 24.2322 11.8506V12.0375C24.2322 12.061 24.2377 12.0841 24.2482 12.1051C24.3163 12.2411 24.52 12.2024 24.5335 12.0509L24.5463 11.908C24.5495 11.8715 24.5416 11.8348 24.5234 11.8029L24.5088 11.7773ZM24.9068 12.4763C24.8442 12.3662 24.6771 12.4026 24.6658 12.5287C24.6575 12.6223 24.7486 12.6932 24.8372 12.6622C24.9134 12.6355 24.9468 12.5464 24.9068 12.4763ZM25.0844 12.7881C25.0774 12.7757 25.0625 12.7702 25.0491 12.7749L24.8289 12.852C24.7356 12.8846 24.6923 12.9917 24.7365 13.08C24.8067 13.2202 25.0147 13.1913 25.044 13.0373L25.0877 12.8081C25.089 12.8013 25.0879 12.7942 25.0844 12.7881ZM25.4884 13.4975C25.3974 13.3377 25.1566 13.3777 25.1222 13.5583L25.0866 13.7451C25.0835 13.761 25.0858 13.7774 25.0931 13.7919C25.1082 13.8222 25.1422 13.8382 25.1753 13.8306L25.3607 13.7882C25.4899 13.7586 25.554 13.6127 25.4884 13.4975ZM25.5476 14.1471C25.58 14.0416 25.486 13.9405 25.3783 13.9652C25.2877 13.986 25.2405 14.0862 25.2821 14.1693C25.3401 14.2851 25.5096 14.2709 25.5476 14.1471ZM25.8174 14.9164C25.7254 14.9262 25.637 14.8778 25.5955 14.7951C25.57 14.744 25.565 14.6851 25.5818 14.6305L25.5985 14.5759C25.6653 14.3582 25.96 14.3257 26.0726 14.5235C26.1653 14.6863 26.0605 14.8907 25.8742 14.9104L25.8174 14.9164ZM25.9287 15.0822C25.8417 15.0914 25.7907 15.1847 25.8299 15.2629C25.8773 15.3577 26.0137 15.3543 26.0565 15.2573C26.0953 15.1692 26.0244 15.0721 25.9287 15.0822ZM25.9906 15.9741C25.9781 15.9491 25.9422 15.95 25.9309 15.9756C25.9214 15.9971 25.9369 16.0214 25.9604 16.0219C25.9853 16.0224 26.0018 15.9963 25.9906 15.9741ZM26.3975 16.031C26.2838 16.0287 26.1808 15.9635 26.1299 15.8619L26.115 15.8323C26.0743 15.7509 26.0719 15.6555 26.1086 15.5722C26.2098 15.3424 26.5296 15.326 26.6538 15.5442L26.6702 15.573C26.788 15.7798 26.6354 16.036 26.3975 16.031ZM26.4823 16.2095C26.4005 16.2078 26.3462 16.2937 26.3828 16.3669C26.4213 16.4436 26.5294 16.4476 26.5734 16.3739C26.6161 16.3023 26.5657 16.2112 26.4823 16.2095ZM26.5011 16.9932C26.4826 16.9563 26.4306 16.9544 26.4095 16.9898C26.3904 17.0217 26.4098 17.0628 26.4466 17.0683C26.4885 17.0746 26.5201 17.031 26.5011 16.9932ZM26.9348 17.1413C26.8236 17.1247 26.7274 17.0549 26.6771 16.9544L26.6474 16.8951C26.5958 16.7921 26.6003 16.67 26.6593 16.5712C26.7917 16.3493 27.1142 16.3526 27.242 16.5771L35.053 30.2939C35.3407 30.7992 34.9758 31.427 34.3943 31.427C34.1073 31.427 33.845 31.265 33.7165 31.0085L27.1746 17.9477C27.1231 17.8449 27.1355 17.7217 27.2063 17.6311C27.3468 17.4515 27.2414 17.1871 27.0158 17.1534L26.9348 17.1413ZM27.0353 17.3348C26.9591 17.3234 26.9016 17.4026 26.9361 17.4716C26.9674 17.534 27.0531 17.5426 27.0962 17.4876C27.1411 17.4301 27.1074 17.3456 27.0353 17.3348ZM24.3291 12.8401C24.3705 12.8256 24.3898 12.778 24.3701 12.7387C24.3357 12.6701 24.2322 12.6945 24.2322 12.7713C24.2322 12.8215 24.2817 12.8566 24.3291 12.8401ZM25.9872 31.6193C25.986 31.6103 25.9784 31.6036 25.9693 31.6036C25.9497 31.6036 25.9443 31.6305 25.9624 31.6382C25.9751 31.6436 25.9889 31.6331 25.9872 31.6193ZM17.7441 29.7857C17.7574 29.8042 17.7423 29.8295 17.7198 29.8268C17.6996 29.8244 17.6898 29.8008 17.7023 29.7848C17.7131 29.7711 17.734 29.7715 17.7441 29.7857ZM5.9458 21.0961C5.96231 21.1057 5.98353 21.1 5.993 21.0834C6.01039 21.0529 5.97613 21.019 5.9458 21.0368C5.92313 21.05 5.92313 21.0828 5.9458 21.0961Z" fill="url(#paint0_linear_1081_20420)"/>
<defs>
<linearGradient id="paint0_linear_1081_20420" x1="2.41237" y1="25.8969" x2="33.407" y2="5.59077" gradientUnits="userSpaceOnUse">
<stop stop-color="#844FFC"/>
<stop offset="1" stop-color="#33FFDA"/>
</linearGradient>
</defs>
</svg>
