<svg width="1634" height="1059" viewBox="0 0 1634 1059" fill="none" xmlns="http://www.w3.org/2000/svg">
<g clip-path="url(#clip0_11260_26807)">
<rect width="1634" height="1059" fill="black"/>
<g filter="url(#filter0_f_11260_26807)">
<rect width="236.881" height="336.115" transform="matrix(-1 0 0 1 237.254 -87.75)" fill="url(#paint0_linear_11260_26807)"/>
</g>
<path opacity="0.66" d="M-191.687 352.508H-169.328C-157.161 352.508 -145.411 348.071 -136.28 340.029L-123.377 328.664C-114.247 320.622 -102.497 316.185 -90.3292 316.185H-79.989C-72.5609 316.185 -65.226 314.53 -58.5177 311.34L-45.1703 304.993C-34.4353 299.889 -21.9724 299.889 -11.2374 304.993C3.04035 311.783 19.9906 309.407 31.8516 298.954L47.7082 284.98C51.0885 282.001 54.0506 278.579 56.5142 274.806L89.1256 224.867C91.8956 220.625 95.2943 216.828 99.2052 213.608L119.96 196.516C128.912 189.144 140.148 185.113 151.745 185.113H155.655C167.686 185.113 179.314 189.452 188.405 197.332L200.717 208.004C209.808 215.884 221.436 220.222 233.467 220.222H236.661C248.692 220.222 260.32 215.884 269.411 208.004L283.514 195.779C291.45 188.9 301.6 185.113 312.101 185.113C327.165 185.113 341.164 177.345 349.135 164.563L366.132 137.307C372.782 126.644 384.46 120.163 397.027 120.163C409.645 120.163 421.364 113.63 427.998 102.896L453.117 62.2519C456.233 57.2096 460.221 52.7617 464.895 49.1157L484.773 33.6082C493.56 26.7537 504.384 23.0309 515.528 23.0309H520.668C532.404 23.0309 543.766 18.903 552.764 11.3698L566.144 0.16899C575.142 -7.36422 586.504 -11.4922 598.239 -11.4922L621.312 -11.4922" stroke="url(#paint1_linear_11260_26807)"/>
<path opacity="0.66" d="M-191.687 159.508H-158.1C-153.028 159.508 -147.986 158.736 -143.147 157.219L-116.511 148.872C-111.671 147.355 -106.629 146.583 -101.558 146.583H-74.7602C-70.7392 146.583 -66.733 146.098 -62.8282 145.139L-28.2038 136.63L-1.24005 128.834C7.61352 126.275 17.0023 126.212 25.8894 128.653L39.5595 132.407C48.2273 134.788 57.3765 134.788 66.0443 132.407L83.0001 127.75C89.7932 125.885 96.1154 122.604 101.552 118.125L114.109 107.779C125.954 98.0192 142.615 96.6422 155.902 104.325C167.29 110.91 181.329 110.91 192.717 104.325L198.147 101.185C208.458 95.2236 221.167 95.2236 231.478 101.185C245.311 109.183 262.875 106.227 273.327 94.1402L281.397 84.8073C290.555 74.217 303.865 68.1308 317.865 68.1308H321.49C331.168 68.1308 340.639 70.9399 348.752 76.2173L364.391 86.3895C372.504 91.6668 381.975 94.4759 391.654 94.4759H393.033C408.371 94.4759 422.861 87.4359 432.34 75.3778L450.793 51.906C455.424 46.0146 461.321 41.2397 468.046 37.9343L487.901 28.1766C494.763 24.8039 502.308 23.0502 509.954 23.0502H520.661C532.401 23.0502 543.767 18.9189 552.767 11.3802L566.141 0.177759C575.141 -7.36093 586.507 -11.4922 598.247 -11.4922L621.313 -11.4922" stroke="url(#paint2_linear_11260_26807)"/>
<path opacity="0.66" d="M538.133 342.195L517.035 349.597C505.554 353.625 495.935 361.702 489.982 372.313L481.569 387.309C475.615 397.92 465.997 405.997 454.516 410.025L444.759 413.448C437.749 415.908 431.376 419.898 426.102 425.129L415.609 435.536C407.169 443.907 395.409 448.033 383.589 446.77C367.869 445.091 352.661 452.944 344.93 466.734L334.594 485.17C332.39 489.1 330.728 493.31 329.652 497.685L315.413 555.605C314.204 560.525 312.253 565.232 309.629 569.566L295.703 592.565C289.697 602.485 280.429 610.008 269.486 613.847L265.796 615.142C254.443 619.125 242.035 618.881 230.848 614.455L215.697 608.461C204.51 604.035 192.102 603.791 180.749 607.774L177.735 608.831C166.382 612.814 156.846 620.757 150.877 631.203L141.616 647.408C136.406 656.526 128.082 663.459 118.172 666.936C103.958 671.923 93.3198 683.888 90.0301 698.588L83.0151 729.934C80.2708 742.198 71.3965 752.179 59.5387 756.339C47.6317 760.517 38.7368 770.562 36.0306 782.886L25.7837 829.554C24.5125 835.344 22.2219 840.862 19.0189 845.849L5.39558 867.063C-0.626056 876.44 -9.6076 883.536 -20.123 887.226L-24.9736 888.928C-36.0473 892.813 -45.4016 900.469 -51.3987 910.557L-60.3155 925.555C-66.3127 935.643 -75.667 943.3 -86.7407 947.185L-108.513 954.823" stroke="url(#paint3_linear_11260_26807)"/>
<path opacity="0.66" d="M602.029 524.311L570.335 535.431C565.55 537.11 561.047 539.507 556.983 542.54L534.612 559.236C530.548 562.269 526.046 564.667 521.26 566.346L495.974 575.217C492.18 576.548 488.56 578.332 485.193 580.531L455.338 600.022L432.476 616.305C424.969 621.651 416.13 624.819 406.936 625.458L392.794 626.441C383.827 627.064 375.194 630.093 367.803 635.209L353.345 645.217C347.553 649.226 342.673 654.415 339.026 660.442L330.602 674.361C322.656 687.492 307.391 694.307 292.31 691.457C279.383 689.014 266.136 693.661 257.57 703.645L253.486 708.405C245.731 717.444 233.738 721.652 222.035 719.44C206.334 716.472 190.739 725.077 184.878 739.942L180.353 751.421C175.217 764.446 164.673 774.595 151.462 779.23L148.042 780.43C138.909 783.634 129.043 784.119 119.64 781.825L101.515 777.404C92.1123 775.11 82.2457 775.595 73.1129 778.799L71.8116 779.256C57.3383 784.334 45.9965 795.774 41.0435 810.29L31.4023 838.547C28.9824 845.64 24.9991 852.098 19.747 857.443L4.24274 873.224C-1.11622 878.678 -7.65481 882.831 -14.8701 885.362L-24.9726 888.907C-36.0508 892.794 -45.408 900.455 -51.4048 910.548L-60.3159 925.546C-66.3127 935.639 -75.6699 943.301 -86.7481 947.187L-108.513 954.824" stroke="url(#paint4_linear_11260_26807)"/>
<g filter="url(#filter1_f_11260_26807)">
<path d="M218.596 185.468C67.0536 255.096 32.9266 431.594 35.6092 463.43L-148.99 181.026L490.901 -237.251L765.601 182.992C627.224 86.3055 370.139 115.839 218.596 185.468Z" fill="url(#paint5_linear_11260_26807)" fill-opacity="0.3"/>
</g>
<rect x="66.8125" y="140.176" width="164" height="1" rx="0.5" fill="#A3A3A3" fill-opacity="0.15"/>
<g clip-path="url(#clip1_11260_26807)">
<rect x="263.812" y="140.176" width="164" height="1" rx="0.5" fill="#A3A3A3" fill-opacity="0.15"/>
<rect x="418.812" y="140.176" width="1.00001" height="146" transform="rotate(90 418.812 140.176)" fill="url(#paint6_radial_11260_26807)"/>
</g>
<rect x="460.812" y="140.176" width="164" height="1" rx="0.5" fill="#A3A3A3" fill-opacity="0.15"/>
<rect x="657.812" y="140.176" width="164" height="1" rx="0.5" fill="#A3A3A3" fill-opacity="0.15"/>
<rect x="854.812" y="140.176" width="164" height="1" rx="0.5" fill="#A3A3A3" fill-opacity="0.15"/>
<rect x="1051.81" y="140.176" width="164" height="1" rx="0.5" fill="#A3A3A3" fill-opacity="0.15"/>
<rect x="1248.81" y="140.176" width="164" height="1" rx="0.5" fill="#A3A3A3" fill-opacity="0.15"/>
<rect x="1445.81" y="140.176" width="164" height="1" rx="0.5" fill="#A3A3A3" fill-opacity="0.15"/>
<rect x="66.8125" y="524.176" width="164" height="1" rx="0.5" fill="#A3A3A3" fill-opacity="0.15"/>
<rect x="263.812" y="524.176" width="164" height="1" rx="0.5" fill="#A3A3A3" fill-opacity="0.15"/>
<rect x="460.812" y="524.176" width="164" height="1" rx="0.5" fill="#A3A3A3" fill-opacity="0.15"/>
<rect x="657.812" y="524.176" width="164" height="1" rx="0.5" fill="#A3A3A3" fill-opacity="0.15"/>
<rect x="854.812" y="524.176" width="164" height="1" rx="0.5" fill="#A3A3A3" fill-opacity="0.15"/>
<rect x="1051.81" y="524.176" width="164" height="1" rx="0.5" fill="#A3A3A3" fill-opacity="0.15"/>
<g clip-path="url(#clip2_11260_26807)">
<rect x="1248.81" y="524.176" width="164" height="1" rx="0.5" fill="#A3A3A3" fill-opacity="0.15"/>
<rect x="1403.81" y="524.176" width="1.00001" height="146" transform="rotate(90 1403.81 524.176)" fill="url(#paint7_radial_11260_26807)"/>
</g>
<rect x="1445.81" y="524.176" width="164" height="1" rx="0.5" fill="#A3A3A3" fill-opacity="0.15"/>
<rect x="263.812" y="332.176" width="164" height="1" rx="0.5" fill="#A3A3A3" fill-opacity="0.15"/>
<rect x="460.812" y="332.176" width="164" height="1" rx="0.5" fill="#A3A3A3" fill-opacity="0.15"/>
<rect x="657.812" y="332.176" width="164" height="1" rx="0.5" fill="#A3A3A3" fill-opacity="0.15"/>
<rect x="854.812" y="332.176" width="164" height="1" rx="0.5" fill="#A3A3A3" fill-opacity="0.15"/>
<rect x="1051.81" y="332.176" width="164" height="1" rx="0.5" fill="#A3A3A3" fill-opacity="0.15"/>
<rect x="1248.81" y="332.176" width="164" height="1" rx="0.5" fill="#A3A3A3" fill-opacity="0.15"/>
<rect x="246.812" y="-34.8242" width="1" height="159" rx="0.5" fill="#A3A3A3" fill-opacity="0.15"/>
<rect x="246.812" y="157.176" width="1" height="159" rx="0.5" fill="#A3A3A3" fill-opacity="0.15"/>
<g clip-path="url(#clip3_11260_26807)">
<rect x="246.812" y="349.176" width="1" height="159" rx="0.5" fill="#A3A3A3" fill-opacity="0.15"/>
<rect x="247.812" y="501.176" width="1.00001" height="146" transform="rotate(-180 247.812 501.176)" fill="url(#paint8_radial_11260_26807)"/>
</g>
<rect x="1428.81" y="-34.8242" width="1" height="159" rx="0.5" fill="#A3A3A3" fill-opacity="0.15"/>
<g clip-path="url(#clip4_11260_26807)">
<rect x="1428.81" y="157.176" width="1" height="159" rx="0.5" fill="#A3A3A3" fill-opacity="0.15"/>
<rect x="1429.81" y="309.176" width="1.00001" height="146" transform="rotate(-180 1429.81 309.176)" fill="url(#paint9_radial_11260_26807)"/>
</g>
<rect x="1428.81" y="349.176" width="1" height="159" rx="0.5" fill="#A3A3A3" fill-opacity="0.15"/>
<rect x="443.812" y="157.176" width="1" height="159" rx="0.5" fill="#A3A3A3" fill-opacity="0.15"/>
<rect x="443.812" y="349.176" width="1" height="159" rx="0.5" fill="#A3A3A3" fill-opacity="0.15"/>
<rect x="837.812" y="157.176" width="1" height="159" rx="0.5" fill="#A3A3A3" fill-opacity="0.15"/>
<rect x="837.812" y="349.176" width="1" height="100" rx="0.5" fill="#A3A3A3" fill-opacity="0.15"/>
<rect x="1034.81" y="157.176" width="1" height="159" rx="0.5" fill="#A3A3A3" fill-opacity="0.15"/>
<rect x="1034.81" y="349.176" width="1" height="159" rx="0.5" fill="#A3A3A3" fill-opacity="0.15"/>
<rect x="1231.81" y="157.176" width="1" height="159" rx="0.5" fill="#A3A3A3" fill-opacity="0.15"/>
<rect x="1231.81" y="349.176" width="1" height="159" rx="0.5" fill="#A3A3A3" fill-opacity="0.15"/>
<rect x="640.812" y="157.176" width="1" height="159" rx="0.5" fill="#A3A3A3" fill-opacity="0.15"/>
<rect x="640.812" y="349.176" width="1" height="159" rx="0.5" fill="#A3A3A3" fill-opacity="0.15"/>
<rect x="837.812" y="482.176" width="1" height="26" rx="0.5" fill="#A3A3A3" fill-opacity="0.15"/>
<rect x="246.812" y="541.176" width="1" height="26" rx="0.5" fill="#A3A3A3" fill-opacity="0.15"/>
<rect x="443.812" y="541.176" width="1" height="26" rx="0.5" fill="#A3A3A3" fill-opacity="0.15"/>
<rect x="640.812" y="541.176" width="1" height="26" rx="0.5" fill="#A3A3A3" fill-opacity="0.15"/>
<rect x="837.812" y="541.176" width="1" height="26" rx="0.5" fill="#A3A3A3" fill-opacity="0.15"/>
<rect x="1034.81" y="541.176" width="1" height="26" rx="0.5" fill="#A3A3A3" fill-opacity="0.15"/>
<rect x="1231.81" y="541.176" width="1" height="26" rx="0.5" fill="#A3A3A3" fill-opacity="0.15"/>
<rect x="1428.81" y="541.176" width="1" height="26" rx="0.5" fill="#A3A3A3" fill-opacity="0.15"/>
<g opacity="0.8">
<rect x="239.812" y="517.176" width="15" height="15" rx="7.5" fill="#A3A3A3" fill-opacity="0.15"/>
</g>
<g opacity="0.8">
<rect x="436.812" y="517.176" width="15" height="15" rx="7.5" fill="#A3A3A3" fill-opacity="0.15"/>
</g>
<g opacity="0.8">
<rect x="1224.81" y="517.176" width="15" height="15" rx="7.5" fill="#A3A3A3" fill-opacity="0.15"/>
</g>
<g opacity="0.8">
<rect x="1224.81" y="325.176" width="15" height="15" rx="7.5" fill="#A3A3A3" fill-opacity="0.15"/>
</g>
<g opacity="0.8">
<rect x="830.812" y="133.176" width="15" height="15" rx="7.5" fill="#A3A3A3" fill-opacity="0.15"/>
</g>
<g opacity="0.8">
<rect x="436.812" y="325.176" width="15" height="15" rx="7.5" fill="#A3A3A3" fill-opacity="0.15"/>
</g>
<g opacity="0.8">
<rect x="1421.81" y="517.176" width="15" height="15" rx="7.5" fill="#A3A3A3" fill-opacity="0.15"/>
</g>
<path opacity="0.74" d="M847.312 455.508H869.672C881.839 455.508 893.589 459.945 902.72 467.987L915.623 479.352C924.753 487.394 936.503 491.831 948.671 491.831H959.011C966.439 491.831 973.774 493.486 980.482 496.675L993.83 503.022C1004.56 508.127 1017.03 508.127 1027.76 503.022C1042.04 496.233 1058.99 498.609 1070.85 509.062L1086.71 523.036C1090.09 526.015 1093.05 529.437 1095.51 533.21L1128.13 583.149C1130.9 587.391 1134.29 591.187 1138.21 594.408L1158.96 611.499C1167.91 618.871 1179.15 622.902 1190.74 622.902H1194.66C1206.69 622.902 1218.31 618.564 1227.41 610.684L1239.72 600.012C1248.81 592.131 1260.44 587.793 1272.47 587.793H1275.66C1287.69 587.793 1299.32 592.131 1308.41 600.012L1322.51 612.237C1330.45 619.115 1340.6 622.902 1351.1 622.902C1366.17 622.902 1380.16 630.67 1388.14 643.453L1405.13 670.709C1411.78 681.372 1423.46 687.852 1436.03 687.852C1448.65 687.852 1460.36 694.386 1467 705.12L1492.12 745.764C1495.23 750.806 1499.22 755.254 1503.9 758.9L1523.77 774.407C1532.56 781.262 1543.38 784.985 1554.53 784.985H1559.67C1571.4 784.985 1582.77 789.113 1591.76 796.646L1605.14 807.847C1614.14 815.38 1625.5 819.508 1637.24 819.508H1660.31" stroke="url(#paint10_linear_11260_26807)"/>
<path opacity="0.74" d="M847.312 648.508H880.9C885.972 648.508 891.014 649.279 895.853 650.796L922.489 659.144C927.329 660.661 932.371 661.432 937.442 661.432H964.24C968.261 661.432 972.267 661.917 976.172 662.877L1010.8 671.386L1037.76 679.181C1046.61 681.741 1056 681.804 1064.89 679.363L1078.56 675.608C1087.23 673.228 1096.38 673.228 1105.04 675.608L1122 680.265C1128.79 682.131 1135.12 685.411 1140.55 689.891L1153.11 700.237C1164.95 709.996 1181.61 711.373 1194.9 703.691C1206.29 697.106 1220.33 697.106 1231.72 703.691L1237.15 706.83C1247.46 712.792 1260.17 712.792 1270.48 706.83C1284.31 698.832 1301.87 701.789 1312.33 713.875L1320.4 723.208C1329.56 733.799 1342.86 739.885 1356.87 739.885H1360.49C1370.17 739.885 1379.64 737.076 1387.75 731.798L1403.39 721.626C1411.5 716.349 1420.98 713.54 1430.65 713.54H1432.03C1447.37 713.54 1461.86 720.58 1471.34 732.638L1489.79 756.11C1494.42 762.001 1500.32 766.776 1507.05 770.081L1526.9 779.839C1533.76 783.212 1541.31 784.965 1548.95 784.965H1559.66C1571.4 784.965 1582.77 789.097 1591.77 796.635L1605.14 807.838C1614.14 815.377 1625.51 819.508 1637.25 819.508H1660.31" stroke="url(#paint11_linear_11260_26807)"/>
<g filter="url(#filter2_f_11260_26807)">
<rect width="236.881" height="336.115" transform="matrix(-1 0 0 1 727.781 545.129)" fill="url(#paint12_linear_11260_26807)" fill-opacity="0.5"/>
</g>
</g>
<defs>
<filter id="filter0_f_11260_26807" x="-199.625" y="-287.75" width="636.879" height="736.117" filterUnits="userSpaceOnUse" color-interpolation-filters="sRGB">
<feFlood flood-opacity="0" result="BackgroundImageFix"/>
<feBlend mode="normal" in="SourceGraphic" in2="BackgroundImageFix" result="shape"/>
<feGaussianBlur stdDeviation="100" result="effect1_foregroundBlur_11260_26807"/>
</filter>
<filter id="filter1_f_11260_26807" x="-398.988" y="-487.25" width="1414.59" height="1200.68" filterUnits="userSpaceOnUse" color-interpolation-filters="sRGB">
<feFlood flood-opacity="0" result="BackgroundImageFix"/>
<feBlend mode="normal" in="SourceGraphic" in2="BackgroundImageFix" result="shape"/>
<feGaussianBlur stdDeviation="125" result="effect1_foregroundBlur_11260_26807"/>
</filter>
<filter id="filter2_f_11260_26807" x="290.902" y="345.129" width="636.879" height="736.117" filterUnits="userSpaceOnUse" color-interpolation-filters="sRGB">
<feFlood flood-opacity="0" result="BackgroundImageFix"/>
<feBlend mode="normal" in="SourceGraphic" in2="BackgroundImageFix" result="shape"/>
<feGaussianBlur stdDeviation="100" result="effect1_foregroundBlur_11260_26807"/>
</filter>
<linearGradient id="paint0_linear_11260_26807" x1="118.44" y1="0" x2="118.44" y2="336.115" gradientUnits="userSpaceOnUse">
<stop stop-color="#FF4F18" stop-opacity="0"/>
<stop offset="1" stop-color="#FF4117"/>
</linearGradient>
<linearGradient id="paint1_linear_11260_26807" x1="-191.688" y1="-11.4922" x2="621.312" y2="-11.4922" gradientUnits="userSpaceOnUse">
<stop offset="0.05" stop-color="#D54D27" stop-opacity="0"/>
<stop offset="0.4" stop-color="#D54D27"/>
</linearGradient>
<linearGradient id="paint2_linear_11260_26807" x1="-191.688" y1="-11.4922" x2="621.312" y2="-11.4922" gradientUnits="userSpaceOnUse">
<stop offset="0.05" stop-color="#D58438" stop-opacity="0"/>
<stop offset="0.4" stop-color="#D58438"/>
</linearGradient>
<linearGradient id="paint3_linear_11260_26807" x1="658.641" y1="685.668" x2="-108.513" y2="954.823" gradientUnits="userSpaceOnUse">
<stop offset="0.05" stop-color="#D54D27" stop-opacity="0"/>
<stop offset="0.4" stop-color="#D54D27"/>
</linearGradient>
<linearGradient id="paint4_linear_11260_26807" x1="658.641" y1="685.668" x2="-108.513" y2="954.823" gradientUnits="userSpaceOnUse">
<stop offset="0.05" stop-color="#D58438" stop-opacity="0"/>
<stop offset="0.4" stop-color="#D58438"/>
</linearGradient>
<linearGradient id="paint5_linear_11260_26807" x1="241.608" y1="177.04" x2="286.208" y2="18.1532" gradientUnits="userSpaceOnUse">
<stop stop-color="#D58438"/>
<stop offset="1" stop-color="#D54D27"/>
</linearGradient>
<radialGradient id="paint6_radial_11260_26807" cx="0" cy="0" r="1" gradientUnits="userSpaceOnUse" gradientTransform="translate(419.313 213.176) rotate(-90) scale(73 0.500003)">
<stop stop-color="#D54D27"/>
<stop offset="1" stop-color="#0F0F0F"/>
</radialGradient>
<radialGradient id="paint7_radial_11260_26807" cx="0" cy="0" r="1" gradientUnits="userSpaceOnUse" gradientTransform="translate(1404.31 597.176) rotate(-90) scale(73 0.500003)">
<stop stop-color="#D54D27"/>
<stop offset="1" stop-color="#222222"/>
</radialGradient>
<radialGradient id="paint8_radial_11260_26807" cx="0" cy="0" r="1" gradientUnits="userSpaceOnUse" gradientTransform="translate(248.313 574.176) rotate(-90) scale(73 0.500003)">
<stop stop-color="#D54D27"/>
<stop offset="1" stop-color="#0F0F0F"/>
</radialGradient>
<radialGradient id="paint9_radial_11260_26807" cx="0" cy="0" r="1" gradientUnits="userSpaceOnUse" gradientTransform="translate(1430.31 382.176) rotate(-90) scale(73 0.500003)">
<stop stop-color="#D54D27"/>
<stop offset="1" stop-color="#232323"/>
</radialGradient>
<linearGradient id="paint10_linear_11260_26807" x1="847.312" y1="819.508" x2="1660.31" y2="819.508" gradientUnits="userSpaceOnUse">
<stop offset="0.05" stop-color="#D54D27" stop-opacity="0"/>
<stop offset="0.4" stop-color="#D54D27"/>
</linearGradient>
<linearGradient id="paint11_linear_11260_26807" x1="847.312" y1="819.508" x2="1660.31" y2="819.508" gradientUnits="userSpaceOnUse">
<stop offset="0.05" stop-color="#D58438" stop-opacity="0"/>
<stop offset="0.4" stop-color="#D58438"/>
</linearGradient>
<linearGradient id="paint12_linear_11260_26807" x1="118.44" y1="0" x2="118.44" y2="336.115" gradientUnits="userSpaceOnUse">
<stop stop-color="#FF4F18" stop-opacity="0"/>
<stop offset="1" stop-color="#FF4117"/>
</linearGradient>
<clipPath id="clip0_11260_26807">
<rect width="1634" height="1059" fill="white"/>
</clipPath>
<clipPath id="clip1_11260_26807">
<rect x="263.812" y="140.176" width="164" height="1" rx="0.5" fill="white"/>
</clipPath>
<clipPath id="clip2_11260_26807">
<rect x="1248.81" y="524.176" width="164" height="1" rx="0.5" fill="white"/>
</clipPath>
<clipPath id="clip3_11260_26807">
<rect x="246.812" y="349.176" width="1" height="159" rx="0.5" fill="white"/>
</clipPath>
<clipPath id="clip4_11260_26807">
<rect x="1428.81" y="157.176" width="1" height="159" rx="0.5" fill="white"/>
</clipPath>
</defs>
</svg>
